<svg width="17" height="16" viewBox="0 0 17 16" fill="none" xmlns="http://www.w3.org/2000/svg">
<path d="M3.93081 3.80444C3.4115 3.80444 3.01665 4.27049 3.10115 4.78263L3.97947 10.0909C4.04656 10.4971 4.39788 10.7946 4.80913 10.7946H14.3369C14.7482 10.7946 15.0995 10.4971 15.1666 10.0909L16.0449 4.78263C16.1299 4.27049 15.7346 3.80444 15.2152 3.80444H3.93081Z" stroke="#A6A6A6" stroke-miterlimit="10"/>
<path d="M0.59375 1.08496H1.58832C2.07178 1.08496 2.48559 1.43168 2.57009 1.90797L3.37107 6.41887" stroke="#A6A6A6" stroke-miterlimit="10" stroke-linecap="round"/>
<path d="M4.13312 13.4719C4.13312 13.4719 2.57418 12.3165 4.09574 10.7944" stroke="#A6A6A6" stroke-miterlimit="10"/>
<path d="M5.31001 15.4038C6.08303 15.4038 6.70968 14.7772 6.70968 14.0042C6.70968 13.2311 6.08303 12.6045 5.31001 12.6045C4.53699 12.6045 3.91034 13.2311 3.91034 14.0042C3.91034 14.7772 4.53699 15.4038 5.31001 15.4038Z" stroke="#A6A6A6" stroke-miterlimit="10"/>
<path d="M14.0876 15.4038C14.8606 15.4038 15.4872 14.7772 15.4872 14.0042C15.4872 13.2311 14.8606 12.6045 14.0876 12.6045C13.3146 12.6045 12.6879 13.2311 12.6879 14.0042C12.6879 14.7772 13.3146 15.4038 14.0876 15.4038Z" stroke="#A6A6A6" stroke-miterlimit="10"/>
<path d="M6.70969 13.4722H12.7186" stroke="#A6A6A6" stroke-miterlimit="10"/>
</svg>
