<svg width="116" height="15" viewBox="0 0 116 15" fill="none" xmlns="http://www.w3.org/2000/svg">
<path d="M6.99556 3.22662H0V0.00439453H19.0311V3.22662H11.9956V13.6799H6.99556V3.22662Z" fill="black"/>
<path d="M26.8489 3.22662H19.8533V0.00439453H38.8844V3.22662H31.8489V13.6799H26.8489V3.22662Z" fill="black"/>
<path d="M56.5867 0H68.5822C72.2533 0 74.3867 1.44445 74.3867 3.96445C74.3867 5.54667 73.5289 6.76 71.9422 7.36445C73.2889 7.71556 73.9156 8.53777 73.9956 9.92444C74.0933 11.5644 74.2489 12.8356 74.6622 13.6756H69.5022C69.1911 12.9511 69.1289 11.9556 69.0711 10.3156C69.0311 9.26222 68.5644 8.90667 67.4711 8.90667H61.5911V13.6756H56.5911V0H56.5867ZM61.5867 3.10668V5.93779H67.6445C68.7778 5.93779 69.4622 5.43111 69.4622 4.52889C69.4622 3.60889 68.7956 3.10223 67.6445 3.10223H61.5867V3.10668Z" fill="black"/>
<path d="M75.44 7.03556V0H80.44V7.11111C80.44 9.32 82.12 10.5511 84.4667 10.5511C86.8311 10.5511 88.4933 9.32001 88.4933 7.13334V0H93.3778V7.03556C93.3778 11.4889 89.92 14.0311 84.3911 14.0311C78.88 14.0311 75.44 11.4711 75.44 7.03556Z" fill="black"/>
<path d="M94.6844 0H101.444L103.4 4.51556L105.333 9.02667L109.24 0H116V13.6756H111.427L111.444 6.83556L111.462 4.35556L110.409 6.83556L107.458 13.6756H103.04L100.089 6.83556L99.0356 4.31557L99.0533 13.6756H94.6756V0H94.6844Z" fill="black"/>
<path d="M48.1467 0H42.6933L34.8 13.6756H39.92L41.2889 11.1156H49.24L50.6089 13.6756H56.0578L48.1467 0ZM45.52 8.61778C45.4711 8.62223 45.4222 8.62223 45.3778 8.62223C45.3289 8.62223 45.28 8.62223 45.2356 8.61778C43.8222 8.52445 43.0356 6.9289 43.7422 5.70223L45.3778 2.86667L47.0133 5.70223C47.72 6.9289 46.9333 8.52445 45.52 8.61778Z" fill="black"/>
</svg>
