<svg width="53" height="12" viewBox="0 0 53 12" fill="none" xmlns="http://www.w3.org/2000/svg">
<path d="M6.51562 3.39062C6.42188 2.5 5.70312 1.96875 4.5625 1.96875C3.375 1.96875 2.71875 2.51562 2.70312 3.26562C2.6875 4.07812 3.54688 4.45312 4.51562 4.67188L5.53125 4.92188C7.46875 5.35938 8.92188 6.34375 8.92188 8.23438C8.92188 10.3125 7.29688 11.625 4.54688 11.625C1.8125 11.625 0.0625 10.3594 0 7.9375H2.28125C2.35938 9.07812 3.26562 9.65625 4.51562 9.65625C5.75 9.65625 6.54688 9.07812 6.54688 8.23438C6.54688 7.46875 5.84375 7.10938 4.60938 6.79688L3.375 6.5C1.46875 6.03125 0.296875 5.07812 0.296875 3.42188C0.296875 1.35938 2.10938 0 4.57812 0C7.07812 0 8.73438 1.39062 8.76562 3.39062H6.51562Z" fill="#FF6135"/>
<path d="M19.4906 0.15625V11.4688H17.4594L12.4906 4.28125H12.3969V11.4688H10.0531V0.15625H12.1156L17.0531 7.34375H17.1625V0.15625H19.4906Z" fill="#FF6135"/>
<path d="M22.8875 11.4688H20.3563L24.2781 0.15625H27.2938L31.2 11.4688H28.6844L27.8406 8.85938H23.7469L22.8875 11.4688ZM24.3406 7.03125H27.2469L25.825 2.70312H25.7469L24.3406 7.03125Z" fill="#FF6135"/>
<path d="M39.1125 4.09375C38.925 2.84375 37.9562 2.07812 36.6437 2.07812C34.8781 2.07812 33.7219 3.4375 33.7219 5.8125C33.7219 8.25 34.8937 9.54688 36.6281 9.54688C37.925 9.54688 38.8781 8.82812 39.1125 7.60938L41.4875 7.625C41.2219 9.71875 39.4719 11.625 36.5969 11.625C33.5656 11.625 31.3312 9.5 31.3312 5.8125C31.3312 2.125 33.6125 0 36.5969 0C39.2062 0 41.175 1.5 41.4875 4.09375H39.1125Z" fill="#FF6135"/>
<path d="M42.7281 11.4688V0.15625H45.0719V5.17188H45.2281L49.3375 0.15625H52.1656L47.9469 5.21875L52.2125 11.4688H49.4L46.2594 6.79688L45.0719 8.23438V11.4688H42.7281Z" fill="#FF6135"/>
</svg>
