<svg width="28" height="28" viewBox="0 0 28 28" fill="none" xmlns="http://www.w3.org/2000/svg">
<circle cx="14" cy="14" r="14" fill="#FF6135"/>
<path d="M14.5722 13.7593V17.3997C14.5722 17.5376 14.512 17.6699 14.4048 17.7675C14.2977 17.865 14.1523 17.9198 14.0008 17.9198C13.8492 17.9198 13.7039 17.865 13.5967 17.7675C13.4895 17.6699 13.4293 17.5376 13.4293 17.3997V13.7593C13.4293 13.6214 13.4895 13.4891 13.5967 13.3916C13.7039 13.2941 13.8492 13.2393 14.0008 13.2393C14.1523 13.2393 14.2977 13.2941 14.4048 13.3916C14.512 13.4891 14.5722 13.6214 14.5722 13.7593ZM21.9907 12.3363L21.0007 19.0977C20.964 19.3476 20.8289 19.5768 20.6203 19.7428C20.4118 19.9088 20.1442 20.0002 19.8672 20H8.13435C7.85734 20.0002 7.58969 19.9088 7.38118 19.7428C7.17267 19.5768 7.03749 19.3476 7.00079 19.0977L6.01008 12.337C5.98849 12.19 6.00168 12.0405 6.04877 11.8985C6.09587 11.7566 6.17577 11.6254 6.28312 11.5139C6.39047 11.4023 6.5228 11.3129 6.67121 11.2518C6.81963 11.1906 6.98071 11.1589 7.14364 11.159H9.74149L13.5722 7.17607C13.6258 7.12073 13.6918 7.07641 13.7657 7.04606C13.8395 7.0157 13.9197 7 14.0008 7C14.0818 7 14.162 7.0157 14.2359 7.04606C14.3098 7.07641 14.3757 7.12073 14.4293 7.17607L18.26 11.159H20.8579C21.0206 11.1591 21.1815 11.1909 21.3297 11.2521C21.4779 11.3134 21.61 11.4027 21.7171 11.5142C21.8243 11.6256 21.9041 11.7566 21.9512 11.8984C21.9982 12.0402 22.0115 12.1895 21.99 12.3363H21.9907ZM11.2601 11.159H16.7415L14.0008 8.30849L11.2601 11.159ZM20.8579 12.1992H7.14364L8.13435 18.9599H19.8672L20.8579 12.1992ZM17.2036 13.7073L16.8036 17.3477C16.7957 17.4159 16.8027 17.4848 16.8241 17.5505C16.8456 17.6162 16.8811 17.6774 16.9286 17.7305C16.9762 17.7837 17.0348 17.8278 17.1011 17.8602C17.1674 17.8927 17.2401 17.913 17.315 17.9198C17.3343 17.9207 17.3536 17.9207 17.3729 17.9198C17.5144 17.9196 17.6509 17.8717 17.7558 17.7852C17.8607 17.6987 17.9266 17.5799 17.9407 17.4517L18.3407 13.8113C18.3559 13.6741 18.3105 13.537 18.2146 13.4302C18.1187 13.3234 17.9801 13.2557 17.8293 13.2419C17.6785 13.2281 17.5279 13.2694 17.4105 13.3567C17.2932 13.4439 17.2188 13.5701 17.2036 13.7073ZM10.7979 13.7073C10.7828 13.5701 10.7083 13.4439 10.591 13.3567C10.4736 13.2694 10.323 13.2281 10.1722 13.2419C10.0214 13.2557 9.88281 13.3234 9.7869 13.4302C9.69099 13.537 9.64562 13.6741 9.66078 13.8113L10.0608 17.4517C10.075 17.5805 10.1414 17.6997 10.2471 17.7863C10.3527 17.8728 10.4901 17.9204 10.6322 17.9198C10.6515 17.9207 10.6708 17.9207 10.6901 17.9198C10.7647 17.9129 10.8372 17.8928 10.9033 17.8605C10.9694 17.8282 11.0279 17.7843 11.0754 17.7314C11.1229 17.6786 11.1584 17.6177 11.1801 17.5523C11.2017 17.4869 11.209 17.4183 11.2015 17.3503L10.7979 13.7073Z" fill="white"/>
</svg>
