<svg width="9" height="9" viewBox="0 0 9 9" fill="none" xmlns="http://www.w3.org/2000/svg">
<path d="M8.88983 8.4006C8.92384 8.43229 8.95111 8.4705 8.97003 8.51296C8.98895 8.55542 8.99913 8.60126 8.99995 8.64774C9.00077 8.69422 8.99222 8.74039 8.97481 8.78349C8.9574 8.82659 8.93148 8.86574 8.89861 8.89861C8.86574 8.93148 8.82659 8.9574 8.78349 8.97481C8.74039 8.99222 8.69422 9.00077 8.64774 8.99995C8.60126 8.99913 8.55542 8.98895 8.51296 8.97003C8.4705 8.95111 8.43229 8.92384 8.4006 8.88983L4.49137 4.98117L0.582135 8.88983C0.516516 8.95097 0.429725 8.98426 0.340047 8.98268C0.25037 8.9811 0.164807 8.94477 0.101386 8.88134C0.0379647 8.81792 0.00163618 8.73236 5.39295e-05 8.64268C-0.00152832 8.55301 0.0317592 8.46622 0.0929038 8.4006L4.00156 4.49137L0.0929038 0.582135C0.0317592 0.516516 -0.00152832 0.429725 5.39295e-05 0.340047C0.00163618 0.25037 0.0379647 0.164807 0.101386 0.101386C0.164807 0.0379647 0.25037 0.00163618 0.340047 5.39295e-05C0.429725 -0.00152832 0.516516 0.0317592 0.582135 0.0929038L4.49137 4.00156L8.4006 0.0929038C8.46622 0.0317592 8.55301 -0.00152832 8.64268 5.39295e-05C8.73236 0.00163618 8.81792 0.0379647 8.88134 0.101386C8.94477 0.164807 8.9811 0.25037 8.98268 0.340047C8.98426 0.429725 8.95097 0.516516 8.88983 0.582135L4.98117 4.49137L8.88983 8.4006Z" fill="#FF6135"/>
</svg>
