<svg width="164" height="164" viewBox="0 0 164 164" fill="none" xmlns="http://www.w3.org/2000/svg">
<mask id="mask0_167_162" style="mask-type:alpha" maskUnits="userSpaceOnUse" x="0" y="0" width="164" height="164">
<rect width="164" height="164" rx="36" fill="#FF007A"/>
</mask>
<g mask="url(#mask0_167_162)">
<rect x="-25" width="206" height="164" fill="#FF007A"/>
<path fill-rule="evenodd" clip-rule="evenodd" d="M127.806 16.6127H39.1465V84.9164H12.0582L82.5713 175.837L153.084 84.9164H127.806V16.6127Z" fill="white" fill-opacity="0.5"/>
<path fill-rule="evenodd" clip-rule="evenodd" d="M127.806 -22.844H39.1465V45.4597H12.0582L82.5713 136.38L153.084 45.4597H127.806V-22.844Z" fill="white" fill-opacity="0.8"/>
<path fill-rule="evenodd" clip-rule="evenodd" d="M127.806 -63H39.1465V5.30368H12.0582L82.5713 96.2244L153.084 5.3037H127.806V-63Z" fill="white"/>
<path d="M64.7916 113.5C65.4583 112.333 67.3916 110 69.7916 110C72.7916 110 74.2916 113.5 78.7916 109.5" stroke="black"/>
<path fill-rule="evenodd" clip-rule="evenodd" d="M35.9315 29.871L27.4673 32.7198L37.4831 62.4777C31.5082 66.3103 28.4776 73.2605 30.4342 79.6929L30.4284 79.6949L50.3703 138.944L50.385 138.939C50.4182 139.07 50.4565 139.2 50.4998 139.329C52.1447 144.216 60.5405 145.801 69.2523 142.868C77.9641 139.936 83.693 133.597 82.0481 128.71C82.0047 128.581 81.9566 128.455 81.904 128.331L81.9186 128.326L62.1229 69.5108L62.1062 69.4611L62.0894 69.4115L61.9767 69.0765L61.9711 69.0783C59.64 62.7718 53.0237 59.0686 45.9473 59.6289L35.9315 29.871Z" fill="black"/>
<ellipse cx="34.1598" cy="38.6054" rx="4.46537" ry="3.65348" transform="rotate(-18.6021 34.1598 38.6054)" fill="#FF6135"/>
<path fill-rule="evenodd" clip-rule="evenodd" d="M36.061 30.2558L27.5968 33.1047L29.4591 38.6377C29.4599 38.6401 29.4607 38.6425 29.4616 38.6449C30.1052 40.5573 32.5218 41.4698 34.8591 40.6831C37.1964 39.8964 38.5694 37.7084 37.9257 35.7961C37.9257 35.7961 37.9257 35.796 37.9257 35.796L37.9257 35.796L36.061 30.2558Z" fill="black"/>
<ellipse cx="31.8289" cy="31.6802" rx="4.46537" ry="3.65348" transform="rotate(-18.6021 31.8289 31.6802)" fill="#FF6135"/>
<path fill-rule="evenodd" clip-rule="evenodd" d="M34.5724 92.0065L34.5723 92.0065L45.1907 123.555L45.1909 123.555C46.3351 126.954 54.3251 127.333 63.0369 124.401C71.7487 121.469 77.8834 116.336 76.7391 112.936L76.7311 112.913L66.1257 81.4032C67.2466 84.803 61.1172 89.9252 52.4184 92.853C43.7066 95.7852 35.7167 95.4062 34.5724 92.0065Z" fill="#FF6135"/>
<path fill-rule="evenodd" clip-rule="evenodd" d="M63.6073 29.871L55.1431 32.7198L65.1589 62.4777C59.184 66.3103 56.1534 73.2605 58.11 79.6929L58.1042 79.6949L78.0461 138.944L78.0608 138.939C78.094 139.07 78.1322 139.2 78.1756 139.329C79.8205 144.216 88.2163 145.801 96.9281 142.868C105.64 139.936 111.369 133.597 109.724 128.71C109.68 128.581 109.632 128.455 109.58 128.331L109.594 128.326L89.7987 69.5108L89.782 69.4611L89.7652 69.4115L89.6525 69.0765L89.6469 69.0783C87.3158 62.7718 80.6994 59.0686 73.6231 59.6289L63.6073 29.871Z" fill="black"/>
<ellipse cx="61.8355" cy="38.6054" rx="4.46537" ry="3.65348" transform="rotate(-18.6021 61.8355 38.6054)" fill="#FF6135"/>
<path fill-rule="evenodd" clip-rule="evenodd" d="M63.7368 30.2558L55.2726 33.1047L57.1343 38.6359C57.1353 38.6389 57.1363 38.6419 57.1373 38.6449C57.781 40.5573 60.1975 41.4698 62.5348 40.6831C64.8721 39.8964 66.2451 37.7084 65.6015 35.7961C65.6015 35.7961 65.6015 35.796 65.6014 35.796L65.6015 35.796L63.7368 30.2558Z" fill="black"/>
<ellipse cx="59.5047" cy="31.6802" rx="4.46537" ry="3.65348" transform="rotate(-18.6021 59.5047 31.6802)" fill="#FF6135"/>
<path fill-rule="evenodd" clip-rule="evenodd" d="M62.2481 92.0065L62.2481 92.0065L72.8665 123.555L72.8666 123.555C74.0109 126.954 82.0008 127.333 90.7126 124.401C99.4245 121.469 105.559 116.336 104.415 112.936L104.407 112.914L93.8013 81.4026C94.9231 84.8024 88.7935 89.925 80.0942 92.853C71.3824 95.7852 63.3924 95.4062 62.2481 92.0065Z" fill="#FF6135"/>
<path fill-rule="evenodd" clip-rule="evenodd" d="M92.2714 29.871L83.8072 32.7198L93.8231 62.4777C87.8481 66.3103 84.8175 73.2605 86.7741 79.6929L86.7683 79.6949L106.71 138.944L106.725 138.939C106.758 139.07 106.796 139.2 106.84 139.329C108.485 144.216 116.88 145.801 125.592 142.868C134.304 139.936 140.033 133.597 138.388 128.71C138.345 128.581 138.297 128.455 138.244 128.331L138.258 128.326L118.463 69.5118L118.446 69.4611L118.429 69.4105L118.317 69.0765L118.311 69.0783C115.98 62.7718 109.364 59.0686 102.287 59.6289L92.2714 29.871Z" fill="black"/>
<ellipse cx="90.4998" cy="38.6054" rx="4.46537" ry="3.65348" transform="rotate(-18.6021 90.4998 38.6054)" fill="#FF6135"/>
<path fill-rule="evenodd" clip-rule="evenodd" d="M92.401 30.2558L83.9369 33.1046L85.7938 38.6217C85.7963 38.6294 85.7989 38.6372 85.8015 38.6449C86.4451 40.5573 88.8617 41.4698 91.199 40.6831C93.5363 39.8964 94.9093 37.7084 94.2656 35.7961C94.2656 35.796 94.2656 35.796 94.2656 35.796L94.2657 35.796L92.401 30.2558Z" fill="black"/>
<ellipse cx="88.1688" cy="31.6802" rx="4.46537" ry="3.65348" transform="rotate(-18.6021 88.1688 31.6802)" fill="#FF6135"/>
<path fill-rule="evenodd" clip-rule="evenodd" d="M90.9161 92.0179L101.531 123.555L101.531 123.555C102.675 126.954 110.665 127.333 119.377 124.401C128.088 121.469 134.223 116.336 133.079 112.936L133.075 112.924L122.46 81.388C123.605 84.7878 117.47 89.9208 108.758 92.853C100.056 95.7819 92.0745 95.407 90.9161 92.0179Z" fill="#FF6135"/>
</g>
</svg>
