<svg width="142" height="164" viewBox="0 0 142 164" fill="none" xmlns="http://www.w3.org/2000/svg">
<mask id="mask0_185_227" style="mask-type:alpha" maskUnits="userSpaceOnUse" x="0" y="0" width="142" height="164">
<rect width="142" height="164" rx="36" fill="#FFCFAC"/>
</mask>
<g mask="url(#mask0_185_227)">
<rect x="-1" width="144" height="164" fill="#FF007A"/>
<path fill-rule="evenodd" clip-rule="evenodd" d="M112.942 17.3556H31.2509V80.2909L6.29163 80.2909L71.2628 164.066L136.234 80.291L112.942 80.291V17.3556Z" fill="white" fill-opacity="0.5"/>
<path fill-rule="evenodd" clip-rule="evenodd" d="M112.942 -19H31.2509V43.9354L6.29163 43.9354L71.2628 127.71L136.234 43.9354L112.942 43.9354V-19Z" fill="white" fill-opacity="0.8"/>
<path fill-rule="evenodd" clip-rule="evenodd" d="M112.942 -56H31.2509V6.93536L6.29163 6.93535L71.2628 90.7102L136.234 6.93536L112.942 6.93536V-56Z" fill="white"/>
<path d="M57.7916 113.5C58.4583 112.333 60.3916 110 62.7916 110C65.7916 110 67.2916 113.5 71.7916 109.5" stroke="black"/>
<path fill-rule="evenodd" clip-rule="evenodd" d="M28.2886 29.5718L20.4896 32.1968L29.7183 59.6159C24.2129 63.1472 21.4205 69.5511 23.2233 75.4781L23.2181 75.4798L41.5927 130.072L41.6062 130.068C41.6368 130.188 41.672 130.308 41.712 130.427C43.2276 134.93 50.9635 136.39 58.9906 133.688C67.0177 130.986 72.2963 125.146 70.7807 120.643C70.7407 120.524 70.6964 120.407 70.6479 120.293L70.6614 120.288L52.4155 66.0784L52.4061 66.0504L52.3966 66.0223L52.2868 65.696L52.2816 65.6977C50.1338 59.8869 44.0374 56.4747 37.5172 56.9909L28.2886 29.5718Z" fill="black"/>
<ellipse cx="26.6561" cy="37.6198" rx="4.11441" ry="3.36634" transform="rotate(-18.6021 26.6561 37.6198)" fill="#FF6135"/>
<path fill-rule="evenodd" clip-rule="evenodd" d="M28.4079 29.9265L20.609 32.5514L22.3271 37.6561L22.3271 37.6561C22.9202 39.4182 25.1468 40.259 27.3004 39.5341C29.454 38.8093 30.7191 36.7932 30.1261 35.0312C30.1253 35.029 30.1246 35.0268 30.1238 35.0246L28.4079 29.9265Z" fill="black"/>
<ellipse cx="24.5084" cy="31.2388" rx="4.11441" ry="3.36634" transform="rotate(-18.6021 24.5084 31.2388)" fill="#FF6135"/>
<path fill-rule="evenodd" clip-rule="evenodd" d="M27.0362 86.8238L27.0362 86.8239L36.82 115.893L36.8201 115.893C37.8745 119.025 45.2364 119.374 53.2635 116.673C61.2906 113.971 66.9431 109.241 65.8888 106.109L65.8849 106.097L56.1082 77.0498C57.1473 80.1824 51.4982 84.9049 43.4796 87.6038C35.4525 90.3055 28.0906 89.9563 27.0362 86.8238Z" fill="#FF6135"/>
<path fill-rule="evenodd" clip-rule="evenodd" d="M53.7891 29.5718L45.9902 32.1968L55.2188 59.6159C49.7135 63.1472 46.9211 69.5511 48.7239 75.4781L48.7186 75.4798L67.0932 130.072L67.1068 130.068C67.1373 130.188 67.1726 130.308 67.2126 130.427C68.7282 134.93 76.4641 136.39 84.4912 133.688C92.5183 130.986 97.7969 125.146 96.2813 120.643C96.2413 120.524 96.197 120.407 96.1485 120.293L96.162 120.288L77.9164 66.0792L77.9067 66.0504L77.897 66.0216L77.7874 65.696L77.7822 65.6977C75.6343 59.8869 69.538 56.4747 63.0178 56.9909L53.7891 29.5718Z" fill="black"/>
<ellipse cx="52.1567" cy="37.6198" rx="4.11441" ry="3.36634" transform="rotate(-18.6021 52.1567 37.6198)" fill="#FF6135"/>
<path fill-rule="evenodd" clip-rule="evenodd" d="M53.9085 29.9265L46.1096 32.5514L47.8277 37.6561L47.8277 37.6561C48.4208 39.4182 50.6474 40.259 52.801 39.5341C54.9546 38.8093 56.2197 36.7932 55.6266 35.0312C55.6261 35.0297 55.6257 35.0283 55.6252 35.0268L53.9085 29.9265Z" fill="black"/>
<ellipse cx="50.009" cy="31.2388" rx="4.11441" ry="3.36634" transform="rotate(-18.6021 50.009 31.2388)" fill="#FF6135"/>
<path fill-rule="evenodd" clip-rule="evenodd" d="M68.9802 87.6038C77 84.9045 82.6495 80.1811 81.6084 77.0485L91.3857 106.098L91.3894 106.109C92.4437 109.241 86.7912 113.971 78.764 116.673C70.737 119.374 63.3751 119.025 62.3207 115.893L62.3206 115.893L52.5368 86.8239L52.5368 86.8238C53.5912 89.9563 60.9531 90.3055 68.9802 87.6038Z" fill="#FF6135"/>
<path fill-rule="evenodd" clip-rule="evenodd" d="M80.2005 29.5718L72.4016 32.1968L81.6302 59.6159C76.1249 63.1472 73.3324 69.5511 75.1352 75.4781L75.13 75.4798L93.5046 130.072L93.5181 130.068C93.5487 130.188 93.5839 130.308 93.6239 130.427C95.1395 134.93 102.875 136.39 110.903 133.688C118.93 130.986 124.208 125.146 122.693 120.643C122.653 120.524 122.608 120.407 122.56 120.293L122.573 120.288L104.327 66.0784L104.318 66.0504L104.309 66.0223L104.199 65.696L104.194 65.6977C102.046 59.8869 95.9493 56.4747 89.4291 56.9909L80.2005 29.5718Z" fill="black"/>
<ellipse cx="78.5681" cy="37.6198" rx="4.11441" ry="3.36634" transform="rotate(-18.6021 78.5681 37.6198)" fill="#FF6135"/>
<path fill-rule="evenodd" clip-rule="evenodd" d="M80.3198 29.9265L72.5209 32.5514L74.2391 37.6561L74.2391 37.6561C74.8321 39.4182 77.0588 40.259 79.2124 39.5341C81.366 38.8093 82.6311 36.7932 82.038 35.0312C82.0371 35.0285 82.0362 35.0259 82.0353 35.0233L80.3198 29.9265Z" fill="black"/>
<ellipse cx="76.4204" cy="31.2388" rx="4.11441" ry="3.36634" transform="rotate(-18.6021 76.4204 31.2388)" fill="#FF6135"/>
<path fill-rule="evenodd" clip-rule="evenodd" d="M78.9481 86.8238L78.9481 86.8239L88.732 115.893L88.732 115.893C89.7864 119.025 97.1483 119.374 105.175 116.673C113.203 113.971 118.855 109.241 117.801 106.109L117.797 106.097L108.021 77.0527C109.056 80.1853 103.408 84.9057 95.3915 87.6038C87.3645 90.3055 80.0026 89.9563 78.9481 86.8238Z" fill="#FF6135"/>
</g>
</svg>
