<svg width="164" height="164" viewBox="0 0 164 164" fill="none" xmlns="http://www.w3.org/2000/svg">
<mask id="mask0_167_229" style="mask-type:alpha" maskUnits="userSpaceOnUse" x="0" y="0" width="164" height="164">
<rect width="164" height="164" rx="36" fill="#FFCFAC"/>
</mask>
<g mask="url(#mask0_167_229)">
<rect x="-11" y="-1" width="198" height="169" fill="#FF6135"/>
<path d="M83.967 35.4878L92.4378 9.08378C92.9683 7.4097 95.4382 7.8075 95.4382 9.56445L95.3388 37.2779C95.3388 38.7696 97.2451 39.3995 98.1237 38.1895L114.336 15.7138C115.364 14.2883 117.585 15.432 117.038 17.0895L108.368 43.4106C107.904 44.8361 109.529 46.0129 110.739 45.1344L133.101 28.7583C134.51 27.7141 136.284 29.4876 135.256 30.9131L118.878 53.2728C117.999 54.4827 119.176 56.1071 120.602 55.643L146.926 46.9743C148.6 46.4273 149.728 48.6483 148.302 49.676L125.824 65.8863C124.614 66.7648 125.227 68.6709 126.735 68.6709L154.452 68.5715C156.209 68.5715 156.607 71.0412 154.933 71.5716L128.542 80.0414C127.117 80.5055 127.117 82.5111 128.542 82.9752L154.933 91.445C156.607 91.9754 156.209 94.4451 154.452 94.4451L126.735 94.3456C125.243 94.3456 124.614 96.2518 125.824 97.1302L148.302 113.341C149.728 114.368 148.584 116.589 146.926 116.042L120.602 107.374C119.176 106.909 117.999 108.534 118.878 109.744L135.256 132.104C136.3 133.512 134.527 135.286 133.101 134.258L110.739 117.882C109.529 117.004 107.904 118.18 108.368 119.606L117.038 145.927C117.585 147.601 115.364 148.728 114.336 147.303L98.1237 124.827C97.2451 123.617 95.3388 124.23 95.3388 125.739L95.4382 153.452C95.4382 155.209 92.9683 155.607 92.4378 153.933L83.967 127.545C83.5029 126.12 81.4971 126.12 81.0329 127.545L72.5622 153.933C72.0317 155.607 69.5617 155.209 69.5617 153.452L69.6612 125.739C69.6612 124.247 67.7549 123.617 66.8763 124.827L50.6641 147.303C49.6363 148.728 47.415 147.585 47.9621 145.927L56.6318 119.606C57.0959 118.18 55.4714 117.004 54.2613 117.882L31.8991 134.258C30.49 135.302 28.7163 133.529 29.7441 132.104L46.122 109.744C47.0006 108.534 45.8236 106.909 44.398 107.374L18.074 116.042C16.3997 116.589 15.2725 114.368 16.6981 113.341L39.1763 97.1302C40.3864 96.2518 39.7731 94.3456 38.2646 94.3456L10.5481 94.4451C8.7909 94.4451 8.39306 91.9754 10.0673 91.445L36.4577 82.9752C37.8833 82.5111 37.8833 80.5055 36.4577 80.0414L10.1005 71.555C8.42621 71.0246 8.82406 68.5549 10.5812 68.5549L38.2977 68.6544C39.7897 68.6544 40.4196 66.7482 39.2095 65.8698L16.7147 49.676C15.289 48.6483 16.4328 46.4273 18.0905 46.9743L44.4146 55.643C45.8402 56.1071 47.0172 54.4827 46.1386 53.2728L29.7772 30.8965C28.7329 29.4876 30.5066 27.7141 31.9322 28.7417L54.2944 45.1178C55.5045 45.9963 57.1291 44.8195 56.6649 43.394L47.9952 17.0729C47.4482 15.3989 49.6695 14.2718 50.6973 15.6972L66.9094 38.1729C67.788 39.3829 69.6944 38.7696 69.6944 37.2613L69.5949 9.54788C69.5949 7.79093 72.0648 7.39312 72.5953 9.0672L81.0661 35.4546C81.5303 36.8801 83.536 36.8801 84.0002 35.4546L83.967 35.4878Z" fill="white" stroke="white" stroke-miterlimit="10"/>
<path fill-rule="evenodd" clip-rule="evenodd" d="M41.2562 53.6945C46.9722 43.7941 59.6317 40.402 69.5321 46.118C79.4325 51.8339 82.8246 64.4935 77.1086 74.3939L67.8484 90.4331C62.5003 99.6962 51.0739 103.262 41.5161 99.0009L37.0673 106.706C45.7513 112.481 50.1136 121.151 46.8766 126.757C43.4169 132.75 32.5864 132.974 22.6861 127.258C12.7857 121.542 7.56446 112.05 11.0241 106.058C14.2611 100.451 23.9505 99.8943 33.2934 104.528L37.7421 96.8221C29.2731 90.6752 26.6479 78.9968 31.9959 69.7337L41.2562 53.6945Z" fill="black"/>
<path d="M79.5598 70.1483C74.8967 78.2249 63.0907 80.1386 53.1904 74.4226C43.29 68.7066 39.0443 57.5255 43.7073 49.4489C48.3704 41.3722 60.1764 39.4586 70.0767 45.1745C79.9771 50.8905 84.2228 62.0716 79.5598 70.1483Z" fill="black"/>
<path d="M77.5279 69.8696C73.2927 77.2052 62.5698 78.9433 53.5777 73.7517C44.5856 68.5601 40.7294 58.4048 44.9647 51.0692" stroke="white" stroke-linecap="round"/>
<path fill-rule="evenodd" clip-rule="evenodd" d="M122.324 53.6945C116.608 43.7941 103.949 40.402 94.0483 46.118C84.1479 51.8339 80.7558 64.4935 86.4718 74.3939L95.7321 90.4331C101.08 99.6962 112.507 103.262 122.064 99.0009L126.513 106.706C117.829 112.481 113.467 121.151 116.704 126.757C120.164 132.75 130.994 132.974 140.894 127.258C150.795 121.542 156.016 112.05 152.556 106.058C149.319 100.451 139.63 99.8943 130.287 104.528L125.838 96.8221C134.307 90.6752 136.933 78.9968 131.585 69.7337L122.324 53.6945Z" fill="black"/>
<path d="M84.0205 70.1483C88.6836 78.2249 100.49 80.1386 110.39 74.4226C120.29 68.7066 124.536 57.5255 119.873 49.4489C115.21 41.3722 103.404 39.4586 93.5036 45.1745C83.6032 50.8905 79.3575 62.0716 84.0205 70.1483Z" fill="black"/>
<path d="M86.0525 69.8696C90.2877 77.2052 101.011 78.9433 110.003 73.7517C118.995 68.5601 122.851 58.4048 118.616 51.0692" stroke="white" stroke-linecap="round"/>
</g>
</svg>
