<svg width="164" height="164" viewBox="0 0 164 164" fill="none" xmlns="http://www.w3.org/2000/svg">
<mask id="mask0_167_305" style="mask-type:alpha" maskUnits="userSpaceOnUse" x="0" y="0" width="164" height="164">
<rect width="164" height="164" rx="36" fill="#FFCFAC"/>
</mask>
<g mask="url(#mask0_167_305)">
<rect width="177" height="164" fill="#FF6135"/>
<ellipse cx="83" cy="88.5" rx="70" ry="69.5" fill="white"/>
<path d="M82.5 -53L143.555 55H21.4452L82.5 -53Z" fill="white" fill-opacity="0.5"/>
<path d="M84.6421 41.2538L29.4822 53.7947L31.8671 116.749L79.5077 145.147L135.278 120.948L139.802 59.2379L84.6421 41.2538Z" fill="#231815"/>
<path d="M48.2259 64.8172L106.063 48.2157L119.452 52.5L62.1497 70.1726L48.2259 64.8172Z" fill="#FF6135"/>
<path d="M119.987 68.0305L65.3629 45.5381L50.368 48.7513L105.528 73.3858L119.987 68.0305Z" fill="#FF6135"/>
<path d="M48.2259 64.8173L62.6853 70.1726L63.7563 136.043L49.297 127.475L48.2259 64.8173Z" fill="#FF6135"/>
<path d="M104.992 134.437L117.845 128.546L119.987 68.0304L105.528 73.3858L104.992 134.437Z" fill="#FF6135"/>
<path d="M108.153 48.1969C110.042 50.4996 106.923 53.3884 101.222 54.6165L100.757 54.7168C100.861 54.8639 100.968 55.0114 101.076 55.1594M108.153 48.1969L91.1928 39.9747C88.4293 41.3456 86.2295 43.4115 84.9515 45.5883C84.8256 45.4655 84.691 45.3652 84.5456 45.2922M108.153 48.1969C106.264 45.896 104.753 41.5753 104.797 38.5987L108.153 48.1969ZM101.076 55.1594L100.542 55.2748C103.364 59.1744 107.644 63.4145 113.869 65.8568L114.433 65.6594L114.598 66.1314L114.428 66.6017C114.237 66.5327 114.047 66.462 113.86 66.3897L104.802 69.5573L104.967 70.0293M101.076 55.1594L101.327 55.1053C104.223 54.4814 106.526 53.4248 107.873 52.1765C108.549 51.5511 109.017 50.846 109.16 50.0915C109.306 49.3165 109.095 48.5569 108.54 47.8798L108.54 47.8797C107.644 46.7884 106.818 45.1905 106.222 43.4861C105.626 41.7817 105.276 40.0177 105.297 38.606L105.297 38.6059C105.309 37.7303 105.001 37.0045 104.404 36.4896C103.822 35.9882 103.016 35.729 102.098 35.6608C100.266 35.5246 97.8065 36.1332 95.1526 37.4503L95.1525 37.4503L90.9706 39.5268L90.9704 39.5269C88.1471 40.9275 85.8812 43.0394 84.5456 45.2922M101.076 55.1594C103.97 59.1045 108.363 63.3503 114.768 65.6611L116.092 66.1388L114.763 66.6034L104.967 70.0293M104.967 70.0293L104.495 70.1944L108.032 80.3086C108.034 80.3097 108.035 80.3109 108.037 80.312C108.216 80.4385 108.353 80.5327 108.445 80.5948C108.466 80.609 108.485 80.6216 108.501 80.6324C108.521 80.6452 108.536 80.6557 108.549 80.6639L108.574 80.6804L108.58 80.6842L108.581 80.6849L108.581 80.685C108.581 80.685 108.581 80.685 108.311 81.1056M104.967 70.0293L108.783 80.9406L109.262 82.3111L108.041 81.5263L108.311 81.1056M108.311 81.1056L107.839 81.2707L107.613 80.6236C104.876 78.6622 94.7003 70.684 87.9169 56.1187C87.7913 56.238 87.6467 56.3269 87.4941 56.3953M108.311 81.1056C108.041 81.5263 108.04 81.5261 108.04 81.526L108.039 81.5255L108.037 81.524L108.029 81.5188L107.999 81.4993C107.973 81.4823 107.936 81.4572 107.886 81.4241C107.788 81.3578 107.644 81.2592 107.459 81.1281C107.089 80.8658 106.553 80.4734 105.887 79.9489C104.556 78.9 102.701 77.3225 100.599 75.2016C96.489 71.0533 91.4295 64.8213 87.4941 56.3953M87.4941 56.3953C87.4238 56.2447 87.3539 56.0935 87.2843 55.9415C87.0332 56.0517 86.7044 56.1083 86.3108 56.1761C85.8448 56.2564 85.2879 56.3522 84.6617 56.5712C84.0352 56.7903 83.5398 57.0626 83.1252 57.2904C82.7751 57.4828 82.4826 57.6435 82.2176 57.7138C82.2578 57.876 82.2974 58.0379 82.3362 58.1994M87.4941 56.3953C87.229 56.5141 86.9398 56.5711 86.6847 56.618C86.5869 56.636 86.4871 56.6532 86.3851 56.6708C85.9207 56.751 85.4102 56.8392 84.8268 57.0432C84.2431 57.2473 83.7888 57.4967 83.3755 57.7235C83.2848 57.7734 83.196 57.8221 83.1083 57.869C82.8795 57.9914 82.6177 58.1272 82.3362 58.1994M82.3362 58.1994C82.1743 58.241 82.0058 58.2616 81.8333 58.2465C85.6055 73.8647 82.619 86.4461 81.7012 89.6853L81.9275 90.3323L81.4555 90.4974M82.3362 58.1994C84.5098 67.2414 84.4366 75.2683 83.8072 81.0742C83.4853 84.0426 83.0179 86.4322 82.63 88.0824C82.4361 88.9076 82.2619 89.5482 82.1358 89.9841C82.0727 90.202 82.0216 90.3688 81.9859 90.482C81.9681 90.5385 81.9542 90.5817 81.9446 90.6111L81.9334 90.645L81.9304 90.6541L81.9295 90.6567L81.9292 90.6575C81.9291 90.6577 81.929 90.658 81.4555 90.4974M81.4555 90.4974C80.982 90.3368 80.982 90.337 80.982 90.337L80.982 90.3368L80.9825 90.3355L80.9847 90.3289L80.9941 90.3002C81.0026 90.2743 81.0154 90.2346 81.0321 90.1817C81.0655 90.0757 81.1143 89.9163 81.1752 89.706C81.1757 89.7042 81.1763 89.7023 81.1768 89.7004L77.6397 79.5861L77.1677 79.7512M81.4555 90.4974L81.929 90.658L81.4628 92.0329L80.9836 90.6625L77.1677 79.7512M77.1677 79.7512L77.0026 79.2792L67.9449 82.4469C67.8431 82.6205 67.7388 82.794 67.6322 82.9672L67.2064 82.7052L67.0413 82.2332L67.6057 82.0358C70.9515 76.2466 71.6563 70.2632 71.434 65.4543L70.944 65.6973M77.1677 79.7512L67.3715 83.1771L66.0429 83.6417L66.7806 82.4431C70.3489 76.6447 71.1392 70.586 70.944 65.6973M70.944 65.6973C70.9366 65.5139 70.9279 65.3322 70.9179 65.1521L70.4928 65.363M70.944 65.6973L70.7151 65.8108M70.4928 65.363C65.268 67.9559 61.0269 67.641 61.0696 64.6629C61.1143 61.6858 59.6033 57.3651 57.7129 55.0647C55.8244 52.7621 58.944 49.873 64.6461 48.6446M70.4928 65.363L70.7151 65.8108M70.4928 65.363L70.715 65.8109L70.7151 65.8108M64.6461 48.6446L69.2109 47.6622M64.6461 48.6446L64.6461 48.6446L64.6461 48.6446ZM69.2109 47.6622C72.2256 47.0124 75.234 47.2568 77.5896 48.1628C77.6114 47.9882 77.6542 47.8259 77.7224 47.6782M69.2109 47.6622L69.1055 47.1734L64.5409 48.1558L64.5408 48.1558C61.6441 48.7798 59.3414 49.8366 57.9933 51.0849C57.3179 51.7104 56.8489 52.4155 56.7063 53.1701C56.5599 53.9451 56.771 54.7047 57.3263 55.3818L57.3266 55.3822C58.2231 56.4732 59.0489 58.0708 59.6449 59.7751C60.241 61.4794 60.5908 63.2435 60.5696 64.6554L60.5696 64.6558C60.5571 65.5314 60.8653 66.2572 61.4628 66.7721C62.0445 67.2734 62.8508 67.5325 63.7688 67.6007C65.6012 67.7368 68.0609 67.1281 70.7151 65.8108M69.2109 47.6622L69.1057 47.1734C72.1857 46.5095 75.2744 46.7486 77.7224 47.6782M77.7224 47.6782C77.8799 47.7381 78.0347 47.8007 78.1868 47.8662C78.3997 47.4382 78.8986 47.3525 79.6074 47.2306C80.0737 47.1505 80.6308 47.0547 81.257 46.8357C81.8832 46.6167 82.3785 46.3446 82.7929 46.1168C83.4231 45.7705 83.8665 45.5268 84.2995 45.7286C84.3776 45.5826 84.4597 45.4371 84.5456 45.2922M77.7224 47.6782C77.786 47.5404 77.8717 47.4153 77.9833 47.3049C78.2375 47.0532 78.5679 46.9382 78.8698 46.8645C79.069 46.8158 79.3063 46.775 79.5469 46.7336C79.6614 46.7138 79.7767 46.694 79.889 46.6731C80.2571 46.6047 80.6583 46.5154 81.092 46.3638C81.5257 46.2121 81.895 46.0319 82.2255 45.8561C82.3263 45.8025 82.4288 45.7462 82.5305 45.6903C82.7445 45.5728 82.9555 45.4569 83.1416 45.3709C83.4236 45.2405 83.7535 45.1245 84.1091 45.1629C84.2651 45.1797 84.41 45.2241 84.5456 45.2922M73.7882 61.6304L73.7881 61.6305L69.6062 63.707C69.6061 63.707 69.606 63.7071 69.606 63.7071C68.8913 64.0616 68.1881 64.3601 67.5138 64.596C66.3384 65.007 65.3967 65.1821 64.6887 65.215C63.9668 65.2485 63.5354 65.1323 63.3379 65.0166L63.3362 65.0156C63.2968 64.9927 63.2521 64.97 63.2189 64.9531L63.2159 64.9516L63.213 64.9501C63.176 64.9313 63.1429 64.9144 63.1094 64.8961C63.0556 64.8667 63.0155 64.8413 62.9867 64.8192C63.8156 63.3928 65.2726 62.1442 67.046 61.0722C68.8205 59.9995 70.8721 59.1271 72.829 58.4401C74.7838 57.7539 76.631 57.2572 77.9903 56.932C78.4748 56.8161 78.8969 56.7221 79.239 56.6492C78.1945 58.5328 76.246 60.4109 73.7882 61.6304ZM96.3184 53.7512L96.3183 53.7513C93.6363 54.3292 90.942 54.0744 88.9507 53.2527C89.2637 53.0965 89.6523 52.907 90.1033 52.6957C91.3691 52.1028 93.1234 51.3399 95.0799 50.6583C97.0384 49.9759 99.1865 49.3796 101.243 49.1127C103.298 48.8459 105.215 48.9146 106.752 49.5142C106.743 49.5492 106.728 49.5939 106.704 49.6502C106.689 49.6848 106.674 49.7179 106.658 49.7549L106.655 49.7603L106.654 49.7625C106.639 49.7967 106.617 49.8429 106.601 49.8863L106.6 49.8869C106.518 50.1004 106.253 50.4602 105.668 50.8839C105.094 51.2994 104.248 51.7494 103.073 52.1604C102.398 52.3962 101.661 52.6013 100.882 52.7692L96.3184 53.7512Z" fill="#FF6135" stroke="black"/>
<path fill-rule="evenodd" clip-rule="evenodd" d="M78.3387 48.7233C78.5106 48.4827 78.845 48.4269 79.0857 48.5988C79.5271 48.9141 79.7982 49.4478 79.9745 49.9005C80.1433 50.3341 80.2602 50.7904 80.3427 51.1129C80.3498 51.1406 80.3566 51.1672 80.3632 51.1928C80.5979 52.1046 80.7637 53.0579 80.7637 54.0319C80.7637 54.3277 80.524 54.5675 80.2282 54.5675C79.9324 54.5675 79.6927 54.3277 79.6927 54.0319C79.6927 53.1772 79.5469 52.3181 79.3259 51.4598C79.3197 51.4354 79.3133 51.4106 79.3068 51.3854C79.2223 51.0559 79.1206 50.6595 78.9764 50.2892C78.8141 49.8725 78.636 49.5938 78.4632 49.4704C78.2225 49.2985 78.1667 48.964 78.3387 48.7233Z" fill="black"/>
<path fill-rule="evenodd" clip-rule="evenodd" d="M85.1017 46.1416C85.3445 45.9728 85.6782 46.0329 85.847 46.2757C85.8718 46.3113 85.8966 46.3469 85.9214 46.3826C86.7823 47.62 87.7002 48.9392 87.7647 50.6805C87.7708 50.8457 87.7866 51.0108 87.8041 51.1942C87.8065 51.2194 87.8089 51.245 87.8114 51.2709C87.8309 51.4783 87.8509 51.7074 87.8509 51.9421C87.8509 52.2379 87.6111 52.4777 87.3154 52.4777C87.0196 52.4777 86.7798 52.2379 86.7798 51.9421C86.7798 51.7627 86.7645 51.578 86.745 51.3716C86.7427 51.3473 86.7404 51.3225 86.738 51.2974C86.7207 51.1172 86.7017 50.9189 86.6944 50.7202C86.6416 49.2957 85.8854 48.2077 84.9699 46.8904L84.9675 46.887C84.7987 46.6441 84.8588 46.3104 85.1017 46.1416Z" fill="black"/>
<path d="M75.0025 61.6041C77.1446 60.3188 79.4653 57.1413 80.3578 55.7132C79.2868 54.6421 69.6472 58.9264 68.0406 59.4619C66.434 59.9975 62.6852 63.7462 62.6852 64.8173C62.6852 65.8883 65.3629 65.8883 65.8984 65.8883C66.434 65.8883 72.3248 63.2107 75.0025 61.6041Z" fill="black"/>
<path d="M93.2106 54.6421C91.9253 54.6421 89.1049 53.571 87.8553 53.0355C93.7462 49.8223 101.779 48.7512 103.386 48.2157C104.992 47.6802 107.134 48.2157 107.134 49.2868C107.134 50.3578 106.063 51.4289 104.992 51.9644C103.921 52.5 94.8172 54.6421 93.2106 54.6421Z" fill="black"/>
<path fill-rule="evenodd" clip-rule="evenodd" d="M107.122 48.1846C107.432 48.4486 107.67 48.8208 107.67 49.2868C107.67 49.9983 107.319 50.6535 106.872 51.175C106.419 51.7025 105.825 52.1467 105.232 52.4434C105.053 52.5328 104.753 52.6363 104.403 52.7448C104.039 52.8574 103.582 52.987 103.064 53.126C102.028 53.4042 100.733 53.7237 99.4227 54.0259C98.113 54.3282 96.7839 54.6142 95.6791 54.8251C94.5965 55.0317 93.673 55.1776 93.2106 55.1776C92.4712 55.1776 91.3684 54.8812 90.3529 54.5486C89.3133 54.2081 88.2809 53.8005 87.6443 53.5277L86.6308 53.0934L87.5989 52.5654C90.6039 50.9262 94.1368 49.8421 97.0972 49.1019C98.5804 48.7311 99.9277 48.4449 100.999 48.2189L101.073 48.2033C102.126 47.9812 102.86 47.8263 103.216 47.7077C104.126 47.4046 105.171 47.4051 106.004 47.6321C106.42 47.7458 106.818 47.9254 107.122 48.1846ZM105.722 48.6654C105.081 48.4908 104.252 48.4913 103.555 48.7238C103.139 48.8624 102.358 49.0271 101.385 49.2322C101.33 49.2436 101.276 49.2552 101.22 49.2669C100.15 49.4927 98.8193 49.7755 97.357 50.141C94.7673 50.7884 91.7881 51.69 89.1386 52.9773C89.6147 53.1605 90.1502 53.3551 90.6863 53.5307C91.7147 53.8675 92.6648 54.1066 93.2106 54.1066C93.5516 54.1066 94.3686 53.9848 95.4783 53.773C96.5658 53.5655 97.8809 53.2825 99.1819 52.9823C100.483 52.6821 101.765 52.3656 102.787 52.0915C103.298 51.9544 103.74 51.8287 104.086 51.7217C104.445 51.6106 104.664 51.53 104.753 51.4855C105.23 51.2467 105.707 50.8875 106.058 50.4779C106.415 50.0622 106.599 49.6463 106.599 49.2868C106.599 49.2172 106.569 49.1209 106.427 48.9999C106.28 48.8742 106.041 48.7526 105.722 48.6654ZM70.2072 59.1914C69.2982 59.5571 68.5698 59.85 68.2099 59.97C67.8978 60.074 67.4214 60.3616 66.8523 60.7987C66.2965 61.2256 65.6947 61.7619 65.1391 62.3175C64.5826 62.874 64.0831 63.4392 63.7271 63.9219C63.5486 64.1638 63.4138 64.3747 63.326 64.5459C63.2823 64.6312 63.2541 64.6992 63.2375 64.7507C63.2223 64.7977 63.2209 64.8186 63.2208 64.8186C63.2209 64.8313 63.2228 64.8397 63.235 64.8566C63.2527 64.881 63.2941 64.923 63.3809 64.9734C63.5607 65.0777 63.8404 65.1646 64.1868 65.2276C64.8491 65.348 65.5824 65.3526 65.8722 65.3528C65.8805 65.351 65.8955 65.3475 65.9184 65.3413C65.9746 65.3259 66.0534 65.3009 66.1562 65.2648C66.3608 65.193 66.6354 65.0862 66.9661 64.9498C67.6262 64.6775 68.489 64.296 69.4217 63.8629C71.2915 62.9948 73.413 61.9332 74.727 61.1449C75.7213 60.5483 76.7914 59.4869 77.74 58.3662C78.4236 57.5585 79.0265 56.7415 79.4714 56.0888C79.1702 56.1144 78.7866 56.1834 78.3325 56.2925C77.2839 56.5445 75.9517 56.9877 74.584 57.488C73.2201 57.987 71.8376 58.5366 70.6918 58.9966C70.5256 59.0634 70.3637 59.1285 70.2072 59.1914ZM80.171 55.0489C80.3559 55.0878 80.5685 55.1665 80.7365 55.3345L81.0378 55.6358L80.812 55.997C80.3531 56.7312 79.5348 57.9036 78.5575 59.0582C77.5872 60.2045 76.4259 61.3746 75.278 62.0633C73.9144 62.8815 71.7516 63.9621 69.8727 64.8344C68.931 65.2716 68.0533 65.6599 67.3746 65.9399C67.0359 66.0796 66.7414 66.1946 66.5109 66.2755C66.3961 66.3157 66.2909 66.3498 66.2007 66.3745C66.1269 66.3946 66.0108 66.4239 65.8985 66.4239H65.8929C65.6207 66.4239 64.7793 66.4239 63.9952 66.2813C63.6053 66.2104 63.1822 66.0965 62.8431 65.8996C62.4998 65.7003 62.1497 65.3541 62.1497 64.8173C62.1497 64.552 62.2575 64.2825 62.3729 64.0573C62.4964 63.8164 62.6671 63.5545 62.8651 63.286C63.2622 62.7478 63.8003 62.1416 64.3818 61.5601C64.9642 60.9777 65.6008 60.4094 66.1998 59.9493C66.7854 59.4995 67.3801 59.1176 67.8712 58.9539C68.1973 58.8452 68.8868 58.5679 69.8048 58.1988C69.9611 58.1359 70.124 58.0704 70.2928 58.0027C71.4398 57.5422 72.8354 56.9873 74.216 56.4822C75.593 55.9784 76.9719 55.5179 78.0822 55.2511C78.6349 55.1183 79.1443 55.0276 79.5642 55.0098C79.7741 55.0008 79.9818 55.0091 80.171 55.0489Z" fill="black"/>
</g>
</svg>
