<svg width="142" height="164" viewBox="0 0 142 164" fill="none" xmlns="http://www.w3.org/2000/svg">
<mask id="mask0_187_438" style="mask-type:alpha" maskUnits="userSpaceOnUse" x="0" y="0" width="142" height="164">
<rect width="142" height="164" rx="36" fill="#FFCFAC"/>
</mask>
<g mask="url(#mask0_187_438)">
<rect width="142" height="164" fill="#FF6135"/>
<circle cx="70" cy="86" r="65" fill="white"/>
<path d="M69.5 -46L126.225 54.5H12.7753L69.5 -46Z" fill="white" fill-opacity="0.5"/>
<path d="M71.5 42L20 53.7088L22.2266 112.486L66.7063 139L118.776 116.407L123 58.7908L71.5 42Z" fill="#231815"/>
<path d="M37.5 64L91.5 48.5L104 52.5L50.5 69L37.5 64Z" fill="#FF6135"/>
<path d="M104.5 67L53.5 46L39.5 49L91 72L104.5 67Z" fill="#FF6135"/>
<path d="M37.5 64L51 69L52 130.5L38.5 122.5L37.5 64Z" fill="#FF6135"/>
<path d="M90.5 129L102.5 123.5L104.5 67L91 72L90.5 129Z" fill="#FF6135"/>
<path d="M86.9795 54.4761C92.3025 53.3295 95.2144 50.6323 93.4512 48.4824M86.9795 54.4761L86.5809 54.5621C86.6853 54.7091 86.7919 54.8566 86.9008 55.0046M86.9795 54.4761L87.0848 54.9649L86.9008 55.0046M86.9795 54.4761L87.0849 54.9648C89.792 54.3817 91.948 53.3933 93.2124 52.2223C93.846 51.6355 94.2889 50.9712 94.4237 50.2574C94.5623 49.5232 94.3617 48.8042 93.8378 48.1653L93.8376 48.1652C93.0044 47.1502 92.2354 45.6622 91.6797 44.0732C91.124 42.4843 90.7981 40.8413 90.8172 39.5283L90.8172 39.5282C90.829 38.702 90.5379 38.0146 89.9719 37.5267C89.4217 37.0524 88.6613 36.809 87.8 36.745C86.0813 36.6172 83.7789 37.188 81.2984 38.4191L81.2983 38.4191L77.3938 40.3578C77.3938 40.3579 77.3937 40.3579 77.3937 40.3579C74.7635 41.6627 72.6495 43.6277 71.397 45.7272M93.4512 48.4824L77.616 40.8058C75.0484 42.0795 73.0019 43.9959 71.8062 46.0174C71.6803 45.8956 71.5446 45.797 71.397 45.7272M93.4512 48.4824C91.6877 46.3341 90.2769 42.3002 90.3172 39.5211L93.4512 48.4824ZM86.9008 55.0046L86.3659 55.12C88.994 58.7429 92.9697 62.675 98.7401 64.9519L99.3034 64.755L99.4684 65.2269L99.2987 65.6972C99.1075 65.6282 98.9181 65.5575 98.7305 65.485L90.3535 68.4146L90.5185 68.8866M86.9008 55.0046C89.5998 58.6725 93.6889 62.6101 99.6381 64.7566L100.962 65.2343L99.6335 65.6989L90.5185 68.8866M90.5185 68.8866L90.0466 69.0516L93.3191 78.4093C93.3336 78.4196 93.3478 78.4297 93.3617 78.4396C93.5283 78.5575 93.6565 78.6453 93.7423 78.7032C93.7852 78.7321 93.8175 78.7535 93.8387 78.7674L93.8622 78.7828L93.8675 78.7863L93.8686 78.7869L93.8687 78.787C93.8687 78.787 93.8686 78.7869 93.5983 79.2076M90.5185 68.8866L94.0703 79.0425L94.5496 80.4131L93.328 79.6282L93.5983 79.2076M93.5983 79.2076L93.1263 79.3726L92.8994 78.7238C90.2792 76.8378 80.8673 69.4071 74.5722 55.9103C74.4456 56.0284 74.2994 56.1148 74.1464 56.1802M93.5983 79.2076C93.328 79.6282 93.3278 79.6281 93.3276 79.628L93.3269 79.6275L93.3247 79.6261L93.3171 79.6212L93.2892 79.6029C93.275 79.5936 93.2571 79.5817 93.2355 79.5673C93.22 79.557 93.2027 79.5454 93.1835 79.5324C93.0914 79.4704 92.9569 79.3782 92.7838 79.2556C92.4376 79.0105 91.9373 78.6437 91.3151 78.1537C90.0708 77.1737 88.3382 75.6999 86.375 73.7187C82.54 69.8483 77.8206 64.0364 74.1464 56.1802M74.1464 56.1802C74.076 56.0296 74.006 55.8782 73.9363 55.7261C73.706 55.8206 73.4097 55.8716 73.058 55.9322C72.6229 56.0071 72.1029 56.0966 71.5183 56.3011C70.9334 56.5056 70.4708 56.7598 70.0838 56.9725C69.7709 57.1445 69.5073 57.2893 69.2683 57.3589C69.3086 57.5213 69.3482 57.6833 69.387 57.845M74.1464 56.1802C73.9023 56.2845 73.6408 56.3355 73.4131 56.3774C73.3212 56.3943 73.2277 56.4104 73.1323 56.4269C72.6988 56.5017 72.2253 56.5835 71.6834 56.773C71.1412 56.9626 70.7198 57.194 70.3341 57.4057C70.2491 57.4523 70.1659 57.498 70.0836 57.542C69.8794 57.6512 69.643 57.7744 69.387 57.845M69.387 57.845C69.2266 57.8891 69.0585 57.9126 68.8857 57.8991C72.374 72.3776 69.6438 84.0545 68.77 87.1624L68.9968 87.8112L68.5249 87.9762M69.387 57.845C71.4096 66.2787 71.3407 73.765 70.7534 79.1818C70.4528 81.9548 70.0161 84.1872 69.6537 85.7291C69.4725 86.5001 69.3098 87.0987 69.1918 87.5062C69.1329 87.7099 69.0851 87.8659 69.0517 87.9718C69.0351 88.0247 69.022 88.0651 69.013 88.0927L69.0025 88.1245L68.9996 88.1331L68.9988 88.1355L68.9985 88.1363C68.9985 88.1366 68.9984 88.1368 68.5249 87.9762M68.5249 87.9762C68.0513 87.8157 68.0513 87.8158 68.0513 87.8158L68.0513 87.8157L68.0517 87.8145L68.0538 87.8084L68.0625 87.7818C68.0704 87.7577 68.0823 87.7208 68.0979 87.6715C68.129 87.5728 68.1745 87.4242 68.2313 87.2281C68.236 87.2118 68.2408 87.1951 68.2457 87.178L64.9731 77.8202L64.5012 77.9853M68.5249 87.9762L68.9984 88.1368L68.5322 89.5118L68.0529 88.1413L64.5012 77.9853M64.5012 77.9853L64.3361 77.5133L55.959 80.4429C55.8576 80.6165 55.7536 80.7899 55.647 80.9631L55.2212 80.701L55.0561 80.229L55.6193 80.032C58.713 74.6552 59.3717 69.1024 59.1699 64.631L58.6796 64.8741M64.5012 77.9853L55.3862 81.173L54.0577 81.6376L54.7953 80.4389C58.1101 75.0527 58.8541 69.425 58.6796 64.8741M58.6796 64.8741C58.6726 64.6905 58.664 64.5087 58.6541 64.3287L58.2895 64.5095M58.6796 64.8741L58.5118 64.9574M58.2895 64.5095C53.4114 66.9304 49.4517 66.6363 49.4915 63.8559C49.5333 61.0763 48.1226 57.0423 46.3576 54.8945C44.5943 52.7447 47.507 50.0472 52.8307 48.9003L57.0927 47.9832M58.2895 64.5095L58.5118 64.9574M58.2895 64.5095L58.5117 64.9574L58.5118 64.9574M57.0927 47.9832C59.8938 47.3794 62.6891 47.6025 64.8835 48.4383C64.906 48.2646 64.9506 48.1029 65.0226 47.9563M57.0927 47.9832L56.9875 47.4943C59.8567 46.8759 62.735 47.0949 65.0226 47.9563M57.0927 47.9832L56.9873 47.4944L52.7256 48.4115L52.7255 48.4116C50.0179 48.9948 47.8615 49.9833 46.5968 51.1545C45.9631 51.7413 45.5201 52.4056 45.3852 53.1194C45.2464 53.8537 45.447 54.5727 45.971 55.2116L45.9713 55.212C46.8051 56.2266 47.5744 57.7144 48.1301 59.3033C48.6858 60.8922 49.0113 62.5352 48.9916 63.8484L48.9916 63.8487C48.9797 64.675 49.2709 65.3624 49.837 65.8502C50.3873 66.3245 51.1478 66.5678 52.0092 66.6318C53.7282 66.7595 56.0309 66.1886 58.5118 64.9574M65.0226 47.9563C65.1807 48.0159 65.3361 48.0785 65.4884 48.1442C65.6952 47.77 66.1542 47.6911 66.7994 47.5802C67.2347 47.5054 67.7548 47.416 68.3395 47.2115C68.9242 47.0071 69.3866 46.7529 69.7735 46.5403C70.3471 46.2251 70.7549 46.001 71.1497 46.1645C71.2279 46.0182 71.3104 45.8724 71.397 45.7272M65.0226 47.9563C65.0819 47.8353 65.16 47.7246 65.2596 47.626C65.5036 47.3845 65.8194 47.2754 66.1028 47.2062C66.29 47.1605 66.5136 47.122 66.7389 47.0832C66.8455 47.0648 66.9525 47.0464 67.0562 47.0271C67.3991 46.9633 67.7718 46.8804 68.1745 46.7396C68.5772 46.5987 68.9204 46.4313 69.2282 46.2676C69.3213 46.2181 69.4164 46.1659 69.5111 46.1138C69.7115 46.0038 69.9104 45.8946 70.0852 45.8137C70.3499 45.6913 70.6648 45.5799 71.0059 45.6167C71.1453 45.6317 71.2752 45.6696 71.397 45.7272M51.3734 64.5889C51.9646 64.9352 53.4027 65.0242 55.6623 64.234C56.312 64.0068 56.9864 63.7202 57.6692 63.3816L61.5738 61.4428C64.0702 60.204 66.0453 58.2506 67.0273 56.2902L51.3734 64.5889ZM51.3734 64.5889L51.3734 64.5889L51.3734 64.5889ZM51.3734 64.5889C51.3477 64.574 51.3154 64.5575 51.2792 64.5391M51.3734 64.5889L51.2792 64.5391M92.437 50.2281C92.4478 50.2001 92.4631 50.1665 92.4803 50.1289C92.5924 49.8826 92.7838 49.462 92.3304 49.2844L92.437 50.2281ZM92.437 50.2281C92.1905 50.8675 91.1213 51.8334 88.8617 52.6236C88.212 52.8508 87.5052 53.0473 86.761 53.2076L92.437 50.2281ZM51.2792 64.5391C51.038 64.4164 50.6245 64.2061 50.8678 63.7846L51.2792 64.5391ZM61.3516 60.9949L61.3514 60.9949L57.447 62.9337C57.4469 62.9337 57.4468 62.9337 57.4468 62.9337C56.7807 63.2642 56.1253 63.5424 55.4972 63.762C54.4021 64.145 53.5261 64.3077 52.869 64.3382C52.1979 64.3693 51.8026 64.2608 51.6261 64.1574L51.6245 64.1565C51.5868 64.1346 51.5444 64.1131 51.5136 64.0974L51.5105 64.0958L51.508 64.0945C51.4733 64.0769 51.4428 64.0614 51.4119 64.0445C51.3763 64.025 51.3477 64.0077 51.3253 63.9925C52.0978 62.6783 53.4459 61.5248 55.0886 60.5318C56.7427 59.5319 58.6559 58.7182 60.4817 58.0773C62.3054 57.437 64.0289 56.9736 65.2972 56.6702C65.7161 56.57 66.0848 56.4873 66.3906 56.4216C65.4108 58.1521 63.6135 59.8725 61.3516 60.9949ZM51.271 63.948C51.271 63.948 51.2712 63.9483 51.2716 63.9488L51.271 63.948ZM82.3946 53.6358L82.3945 53.6358C79.9263 54.1677 77.4484 53.9419 75.6032 53.1997C75.8833 53.0605 76.2231 52.8954 76.613 52.7127C77.7941 52.1595 79.4308 51.4477 81.2561 50.8118C83.0835 50.1751 85.0867 49.6191 87.0033 49.3703C88.907 49.1232 90.68 49.1854 92.1027 49.7323C92.0947 49.758 92.0832 49.7891 92.0675 49.8264C92.0541 49.8583 92.0402 49.8889 92.0243 49.9236L92.0222 49.9283L92.0211 49.9307C92.0067 49.9624 91.9867 50.0063 91.9707 50.0477L91.9705 50.0483C91.8969 50.2391 91.6553 50.5704 91.1111 50.9642C90.5782 51.3499 89.7917 51.7686 88.6967 52.1516C88.0685 52.3713 87.3819 52.5624 86.6558 52.7188C86.6557 52.7188 86.6557 52.7188 86.6557 52.7189L82.3946 53.6358Z" fill="#FF6135" stroke="black"/>
<path fill-rule="evenodd" clip-rule="evenodd" d="M65.6147 48.9739C65.7753 48.7492 66.0875 48.6972 66.3122 48.8577C66.7243 49.152 66.9774 49.6503 67.142 50.073C67.2997 50.4779 67.4088 50.9039 67.4858 51.205C67.4924 51.2308 67.4988 51.2557 67.505 51.2796C67.7241 52.1308 67.8789 53.0209 67.8789 53.9303C67.8789 54.2065 67.6551 54.4303 67.3789 54.4303C67.1028 54.4303 66.8789 54.2065 66.8789 53.9303C66.8789 53.1323 66.7428 52.3302 66.5365 51.5289C66.5307 51.5061 66.5247 51.4829 66.5187 51.4594C66.4398 51.1517 66.3448 50.7816 66.2102 50.4359C66.0587 50.0468 65.8924 49.7867 65.731 49.6714C65.5063 49.5109 65.4542 49.1987 65.6147 48.9739Z" fill="black"/>
<path fill-rule="evenodd" clip-rule="evenodd" d="M71.929 46.5635C72.1557 46.4059 72.4673 46.4619 72.6249 46.6887C72.648 46.7219 72.6711 46.7552 72.6943 46.7885C73.4981 47.9437 74.3551 49.1755 74.4153 50.8012C74.4211 50.9554 74.4358 51.1096 74.4521 51.2808C74.4543 51.3043 74.4566 51.3282 74.4589 51.3525C74.4772 51.5461 74.4958 51.76 74.4958 51.9791C74.4958 52.2553 74.2719 52.4791 73.9958 52.4791C73.7197 52.4791 73.4958 52.2553 73.4958 51.9791C73.4958 51.8116 73.4815 51.6392 73.4633 51.4465C73.4612 51.4237 73.459 51.4006 73.4567 51.3772C73.4406 51.209 73.4229 51.0237 73.416 50.8383C73.3668 49.5083 72.6608 48.4925 71.806 47.2626L71.8038 47.2594C71.6462 47.0326 71.7022 46.7211 71.929 46.5635Z" fill="black"/>
<path d="M62.5 61C64.5 59.8 66.6667 56.8333 67.5 55.5C66.5 54.5 57.5 58.5 56 59C54.5 59.5 51 63 51 64C51 65 53.5 65 54 65C54.5 65 60 62.5 62.5 61Z" fill="black"/>
<path d="M79.5 54.5C78.3 54.5 75.6667 53.5 74.5 53C80 50 87.5 49 89 48.5C90.5 48 92.5 48.5 92.5 49.5C92.5 50.5 91.5 51.5 90.5 52C89.5 52.5 81 54.5 79.5 54.5Z" fill="black"/>
<path fill-rule="evenodd" clip-rule="evenodd" d="M92.4883 48.4709C92.7776 48.7174 93 49.0649 93 49.5C93 50.1643 92.672 50.776 92.2546 51.2629C91.8324 51.7554 91.2777 52.1701 90.7236 52.4472C90.5568 52.5306 90.2768 52.6272 89.9497 52.7286C89.6102 52.8337 89.1836 52.9547 88.6999 53.0845C87.7319 53.3442 86.5228 53.6425 85.2999 53.9247C84.0771 54.2069 82.8362 54.4739 81.8047 54.6708C80.7939 54.8637 79.9317 55 79.5 55C78.8096 55 77.78 54.7232 76.8319 54.4126C75.8613 54.0948 74.8973 53.7142 74.303 53.4596L73.3568 53.054L74.2606 52.561C77.0663 51.0306 80.3647 50.0184 83.1287 49.3274C84.5135 48.9812 85.7714 48.714 86.7718 48.5029L86.8408 48.4884C87.8239 48.281 88.5096 48.1364 88.8419 48.0256C89.6908 47.7427 90.6669 47.7431 91.4441 47.9551C91.8331 48.0612 92.2042 48.2289 92.4883 48.4709ZM91.1809 48.9199C90.5831 48.7568 89.8092 48.7573 89.1581 48.9743C88.7698 49.1038 88.0404 49.2575 87.1317 49.449C87.0811 49.4597 87.0299 49.4705 86.9782 49.4814C85.9786 49.6923 84.7365 49.9562 83.3713 50.2975C80.9534 50.902 78.1718 51.7437 75.6981 52.9456C76.1426 53.1167 76.6426 53.2984 77.1431 53.4623C78.1033 53.7768 78.9904 54 79.5 54C79.8183 54 80.5811 53.8863 81.6172 53.6885C82.6325 53.4948 83.8604 53.2306 85.0751 52.9503C86.2897 52.67 87.4869 52.3745 88.4408 52.1186C88.918 51.9906 89.3312 51.8733 89.6538 51.7733C89.9888 51.6696 90.1932 51.5944 90.2764 51.5528C90.7223 51.3298 91.1676 50.9945 91.4954 50.6121C91.828 50.224 92 49.8357 92 49.5C92 49.435 91.9724 49.3451 91.8398 49.2322C91.702 49.1148 91.4794 49.0013 91.1809 48.9199ZM58.0229 58.7474C57.1742 59.0888 56.4941 59.3624 56.1581 59.4743C55.8667 59.5715 55.4219 59.8399 54.8905 60.2481C54.3716 60.6467 53.8098 61.1473 53.2911 61.6661C52.7715 62.1856 52.3051 62.7134 51.9727 63.164C51.806 63.3899 51.6802 63.5868 51.5983 63.7467C51.5575 63.8263 51.5311 63.8898 51.5156 63.9379C51.5014 63.9818 51.5001 64.0013 51.5 64.0013C51.5001 64.0131 51.5019 64.021 51.5133 64.0367C51.5298 64.0595 51.5685 64.0987 51.6495 64.1457C51.8173 64.2432 52.0785 64.3243 52.4019 64.3831C53.0203 64.4955 53.7049 64.4998 53.9755 64.5C53.9832 64.4983 53.9972 64.4951 54.0186 64.4892C54.0711 64.4749 54.1447 64.4515 54.2407 64.4179C54.4317 64.3508 54.688 64.2511 54.9968 64.1237C55.6131 63.8695 56.4186 63.5133 57.2894 63.109C59.0352 62.2985 61.016 61.3073 62.2428 60.5713C63.1711 60.0143 64.1702 59.0233 65.0559 57.977C65.6941 57.2229 66.2569 56.46 66.6724 55.8507C66.3911 55.8746 66.033 55.939 65.609 56.0409C64.63 56.2761 63.3862 56.6899 62.1093 57.1571C60.8358 57.623 59.5451 58.1361 58.4753 58.5656C58.3201 58.6279 58.169 58.6887 58.0229 58.7474ZM67.3255 54.8797C67.4982 54.9161 67.6967 54.9896 67.8536 55.1465L68.1348 55.4277L67.924 55.765C67.4956 56.4505 66.7316 57.5451 65.8191 58.623C64.9132 59.6933 63.8289 60.7858 62.7572 61.4288C61.484 62.1927 59.4648 63.2016 57.7106 64.016C56.8314 64.4242 56.0119 64.7867 55.3782 65.0482C55.062 65.1786 54.787 65.2859 54.5718 65.3614C54.4647 65.3991 54.3664 65.4309 54.2822 65.4539C54.2132 65.4727 54.1049 65.5 54 65.5H53.9948C53.7407 65.5 52.9551 65.5 52.2231 65.3669C51.859 65.3007 51.4639 65.1943 51.1474 65.0105C50.8269 64.8244 50.5 64.5012 50.5 64C50.5 63.7523 50.6006 63.5007 50.7084 63.2905C50.8237 63.0656 50.983 62.821 51.168 62.5704C51.5386 62.0679 52.041 61.5019 52.5839 60.959C53.1277 60.4152 53.7221 59.8846 54.2814 59.455C54.8281 59.0351 55.3833 58.6785 55.8419 58.5257C56.1463 58.4242 56.79 58.1653 57.6472 57.8207C57.7931 57.762 57.9452 57.7008 58.1028 57.6376C59.1736 57.2077 60.4767 56.6896 61.7657 56.2179C63.0513 55.7476 64.3388 55.3176 65.3754 55.0685C65.8914 54.9445 66.367 54.8599 66.759 54.8432C66.955 54.8349 67.1489 54.8426 67.3255 54.8797Z" fill="black"/>
</g>
</svg>
