<svg width="164" height="164" viewBox="0 0 164 164" fill="none" xmlns="http://www.w3.org/2000/svg">
<mask id="mask0_203_135" style="mask-type:alpha" maskUnits="userSpaceOnUse" x="0" y="0" width="164" height="164">
<rect width="164" height="164" rx="36" fill="#D9D9D9"/>
</mask>
<g mask="url(#mask0_203_135)">
<mask id="mask1_203_135" style="mask-type:alpha" maskUnits="userSpaceOnUse" x="-5" y="-3" width="169" height="170">
<rect x="-5" y="-2.5" width="169" height="169" fill="#689AD5"/>
</mask>
<g mask="url(#mask1_203_135)">
<rect x="-5" y="-2.5" width="169" height="169" fill="#689AD5"/>
<path fill-rule="evenodd" clip-rule="evenodd" d="M1.28179 47.247C-5.2964 49.4375 -10.6953 54.2088 -13.714 60.3597H-16.3354V71.6951V157.226H172.244V71.7957C174.209 68.4385 175.335 64.5306 175.335 60.3597C175.335 47.9013 165.286 37.79 152.851 37.6898C150.021 34.527 145.908 32.5366 141.329 32.5366C139.25 32.5366 137.267 32.947 135.457 33.6913C132.053 31.6495 128.069 30.4756 123.811 30.4756C120.36 30.4756 117.089 31.2466 114.162 32.6257C111.857 31.2597 109.166 30.4756 106.293 30.4756C102.208 30.4756 98.4927 32.0603 95.7291 34.6484C93.8031 34.8008 91.9635 35.2921 90.2603 36.0678C88.2437 33.877 85.5535 32.5388 82.5989 32.5366C80.1401 31.2213 77.3309 30.4756 74.3476 30.4756C69.0449 30.4756 64.2926 32.8315 61.0801 36.5538C59.4322 35.9548 57.6536 35.628 55.7988 35.628C51.5924 35.628 47.7784 37.3083 44.9914 40.0341C41.228 36.6414 36.3703 34.5975 31.0671 34.5975C26.7368 34.5975 22.7036 35.9603 19.3206 38.3073C17.4259 36.625 15.0706 35.628 12.5183 35.628C6.76779 35.628 2.01743 40.6886 1.28179 47.247Z" fill="#598047"/>
<rect x="-16.3354" y="69.6342" width="171.061" height="15.4573" fill="#689AD5"/>
<path fill-rule="evenodd" clip-rule="evenodd" d="M163.925 71.4099C166.509 69.1556 168.122 65.962 168.122 62.4208C168.122 55.5913 162.124 50.0549 154.726 50.0549C147.327 50.0549 141.329 55.5913 141.329 62.4208C141.329 62.8652 141.355 63.3042 141.404 63.7365C138.82 65.9909 137.207 69.1844 137.207 72.7257C137.207 73.6084 137.308 74.4694 137.498 75.2998C135.019 75.9814 132.842 77.3073 131.193 79.0672C130.761 78.5386 130.289 78.0407 129.779 77.5777C127.851 73.5652 123.861 70.5949 119.059 69.8284C117.251 64.3463 111.758 60.3598 105.262 60.3598C97.2945 60.3598 90.8354 66.3576 90.8354 73.7562C80.022 73.7562 71.2561 81.138 71.2561 90.244C71.2561 99.3499 80.022 106.732 90.8354 106.732C97.9892 106.732 104.247 103.501 107.663 98.6773C110.247 102.29 114.669 104.671 119.689 104.671C125.561 104.671 130.614 101.413 132.865 96.7381C135.173 98.4761 138.119 99.5183 141.329 99.5183C148.728 99.5183 154.726 93.982 154.726 87.1525C154.726 86.2698 154.625 85.4087 154.435 84.5784C159.967 83.0571 164 78.3262 164 72.7257C164 72.2812 163.975 71.8422 163.925 71.4099Z" fill="#598047"/>
<path d="M35.7043 100.549L-28.7012 143.314V179.896H198.521V115.491L35.7043 100.549Z" fill="#F4F3DC"/>
<path fill-rule="evenodd" clip-rule="evenodd" d="M-5.28386 78.9306C-4.58203 77.341 -2.32645 77.341 -1.62463 78.9306L0.092186 82.8192L0.89907 80.9916C1.60089 79.402 3.85648 79.402 4.5583 80.9916L4.84994 81.6522L6.05151 78.9306C6.75333 77.341 9.00891 77.341 9.71074 78.9306L11.655 83.3344L12.2344 82.0221C12.9363 80.4325 15.1918 80.4325 15.8937 82.0221L17.6105 85.9106L18.4174 84.0831C19.1192 82.4934 21.3748 82.4934 22.0766 84.0831L22.3682 84.7436L23.5698 82.0221C24.2716 80.4325 26.5272 80.4325 27.229 82.0221L27.7482 83.1979L28.7222 80.9916C29.4241 79.402 31.6796 79.402 32.3815 80.9916L34.0983 84.8802L34.9052 83.0526C35.607 81.4629 37.8626 81.4629 38.5644 83.0526L38.856 83.7131L40.0576 80.9916C40.7594 79.402 43.015 79.402 43.7168 80.9916L45.2062 84.3649L46.2405 82.0221C46.9424 80.4325 49.1979 80.4325 49.8998 82.0221L51.6166 85.9106L52.4235 84.0831C53.1253 82.4934 55.3809 82.4934 56.0827 84.0831L56.3743 84.7436L57.5759 82.0221C58.1225 80.784 59.6116 80.5102 60.5751 81.2006L60.6674 80.9916C61.3692 79.402 63.6248 79.402 64.3266 80.9916L66.0434 84.8802L66.8503 83.0526C67.5521 81.4629 69.8077 81.4629 70.5095 83.0526L70.8012 83.7131L72.0027 80.9916C72.7046 79.402 74.9601 79.402 75.662 80.9916L78.3935 87.1785C78.9772 88.5006 78.0091 89.9863 76.5639 89.9863H73.4127C73.4466 91.0645 72.5868 92.0472 71.4114 92.0472H65.9484C64.773 92.0472 63.9131 91.0645 63.9471 89.9863H63.8864C63.552 90.588 62.9134 91.0167 62.137 91.0167H58.9859C59.0198 92.095 58.16 93.0777 56.9846 93.0777H51.5215C50.3461 93.0777 49.4863 92.095 49.5203 91.0167H45.3386C44.5623 91.0167 43.9236 90.588 43.5892 89.9863H41.4676C41.5015 91.0645 40.6417 92.0472 39.4663 92.0472H34.0033C32.8279 92.0472 31.968 91.0645 32.002 89.9863H29.8803C29.5459 90.588 28.9073 91.0167 28.1309 91.0167H24.9798C25.0137 92.095 24.1539 93.0777 22.9785 93.0777H17.5155C16.3401 93.0777 15.4802 92.095 15.5142 91.0167H11.3325C9.88733 91.0167 8.91921 89.531 9.50291 88.209L9.62815 87.9253H7.46147C7.49544 89.0035 6.63561 89.9863 5.46021 89.9863H-0.00283909C-1.17824 89.9863 -2.03807 89.0035 -2.0041 87.9253H-6.18577C-7.63096 87.9253 -8.59908 86.4396 -8.01538 85.1175L-5.28386 78.9306Z" fill="#598047"/>
<path d="M55.7987 57.2683L55.7987 82" stroke="#E24215" stroke-width="5" stroke-linecap="round"/>
<path d="M58.375 65.5122L23.3384 88.1829" stroke="#E24215" stroke-width="5" stroke-linecap="round"/>
<path d="M97.0182 69.1189L58.375 65.5122" stroke="#E24215" stroke-width="5" stroke-linecap="round"/>
<path d="M98.0487 69.6342L127.933 82" stroke="#E24215" stroke-width="5" stroke-linecap="round"/>
<path d="M21.7926 89.2134L57.8597 65.5122L93.4115 68.0884L128.448 82.5153L91.8658 114.976L23.8536 137.131L21.7926 89.2134Z" fill="#FF6135"/>
<path d="M21.7926 89.2134L56.314 104.671V155.165L23.8536 137.131L21.7926 89.2134Z" fill="#E24215"/>
<path d="M55.7987 104.671L91.8658 82.5153H128.448L125.872 131.979L55.7987 155.165V104.671Z" fill="#E24215"/>
<path d="M93.9268 64.4817L93.9268 89.2134" stroke="#E24215" stroke-width="5" stroke-linecap="round"/>
<path d="M55.7987 55.9952C55.7987 49.8124 73.8323 43.6294 93.9268 64.2392" stroke="#E24215" stroke-width="5" stroke-linecap="round"/>
<path d="M23.3384 89.2134L55.2835 104.671L91.3506 82.5153H127.933" stroke="#E24215" stroke-width="5" stroke-linecap="round"/>
<path d="M56.8292 64.4817L92.8963 79.4238" stroke="#E24215" stroke-width="5" stroke-linecap="round"/>
<rect x="113.506" y="89.7096" width="23.3768" height="45.8185" fill="black"/>
<ellipse cx="125.194" cy="135.061" rx="11.6884" ry="7.01304" fill="black"/>
<ellipse cx="125.194" cy="89.2421" rx="11.6884" ry="9.81826" fill="black"/>
<rect x="121.922" y="63.5276" width="6.54551" height="21.5067" fill="black"/>
<ellipse cx="125.195" cy="63.5275" rx="4.20783" ry="2.80522" fill="black"/>
<rect x="120.987" y="56.9819" width="8.41565" height="6.54551" fill="black"/>
<ellipse cx="125.195" cy="56.9821" rx="4.20783" ry="2.80522" fill="#F4F3DC"/>
<path fill-rule="evenodd" clip-rule="evenodd" d="M136.883 105.606H113.506V124.768C113.506 124.77 113.506 124.772 113.506 124.775C113.506 124.777 113.506 124.78 113.506 124.782V126.177H113.74C114.823 129.378 119.54 131.788 125.194 131.788C130.849 131.788 135.566 129.378 136.649 126.177H136.883V105.606Z" fill="#F4F3DC"/>
<ellipse cx="125.194" cy="105.606" rx="11.6884" ry="5.61043" fill="black"/>
<rect x="134.078" y="102.801" width="23.3768" height="45.8185" fill="black"/>
<ellipse cx="145.766" cy="148.152" rx="11.6884" ry="7.01304" fill="black"/>
<ellipse cx="145.766" cy="102.333" rx="11.6884" ry="9.81826" fill="black"/>
<rect x="142.493" y="76.6187" width="6.54551" height="21.5067" fill="black"/>
<ellipse cx="145.766" cy="76.6186" rx="4.20783" ry="2.80522" fill="black"/>
<rect x="141.558" y="70.073" width="8.41565" height="6.54551" fill="black"/>
<ellipse cx="145.766" cy="70.073" rx="4.20783" ry="2.80522" fill="#F4F3DC"/>
<path fill-rule="evenodd" clip-rule="evenodd" d="M157.454 118.697H134.078V137.852C134.078 137.857 134.078 137.861 134.078 137.866C134.078 137.87 134.078 137.875 134.078 137.879V139.268H134.311C135.394 142.469 140.111 144.879 145.766 144.879C151.421 144.879 156.138 142.469 157.221 139.268H157.454V118.697Z" fill="#F4F3DC"/>
<ellipse cx="145.766" cy="118.697" rx="11.6884" ry="5.61043" fill="black"/>
<path d="M99.6804 98.359H116.984L119.646 122.983H97.0183L99.6804 98.359Z" fill="#FF6135"/>
<circle cx="108.332" cy="122.983" r="11.3139" fill="#FF6135"/>
<ellipse cx="108.332" cy="98.6917" rx="8.6518" ry="4.3259" fill="#FF6135"/>
<rect x="107.667" y="127.642" width="1.33105" height="19.9657" fill="#FF6135"/>
<ellipse cx="108.665" cy="152.266" rx="11.6467" ry="5.98971" fill="#FF6135"/>
</g>
</g>
</svg>
