<svg width="67" height="67" viewBox="0 0 67 67" fill="none" xmlns="http://www.w3.org/2000/svg">
<rect y="0.00366211" width="66.1392" height="66.1392" rx="20" fill="black"/>
<path d="M13.7 37.7719H11V30.1059H13.7318C16.0401 30.1059 17.4483 31.5459 17.4483 33.9283C17.4483 36.3318 16.0401 37.7719 13.7 37.7719ZM12.5883 36.406H13.6365C15.0977 36.406 15.8601 35.6436 15.8601 33.9283C15.8601 32.2236 15.0977 31.4718 13.6471 31.4718H12.5883V36.406Z" fill="#FF6135"/>
<path d="M18.3314 37.7719V30.1059H23.4773V31.4188H19.9196V33.2824H23.2126V34.5954H19.9196V36.4589H23.4879V37.7719H18.3314Z" fill="#FF6135"/>
<path d="M28.6063 32.2977C28.5428 31.6941 28.0557 31.3341 27.2828 31.3341C26.4781 31.3341 26.0334 31.7047 26.0228 32.213C26.0122 32.7636 26.5946 33.0177 27.251 33.1659L27.9393 33.3353C29.2522 33.6318 30.2369 34.2989 30.2369 35.5801C30.2369 36.9883 29.1358 37.8777 27.2722 37.8777C25.4192 37.8777 24.2333 37.0201 24.191 35.3789H25.7369C25.7898 36.1518 26.404 36.5436 27.251 36.5436C28.0875 36.5436 28.6275 36.1518 28.6275 35.5801C28.6275 35.0612 28.151 34.8177 27.3146 34.6059L26.4781 34.4048C25.1863 34.0871 24.3922 33.4412 24.3922 32.3189C24.3922 30.9212 25.6204 30 27.2934 30C28.9875 30 30.1099 30.9424 30.1311 32.2977H28.6063Z" fill="#FF6135"/>
<path d="M35.1648 32.2977C35.1012 31.6941 34.6142 31.3341 33.8412 31.3341C33.0365 31.3341 32.5918 31.7047 32.5812 32.213C32.5706 32.7636 33.153 33.0177 33.8095 33.1659L34.4977 33.3353C35.8107 33.6318 36.7954 34.2989 36.7954 35.5801C36.7954 36.9883 35.6942 37.8777 33.8306 37.8777C31.9777 37.8777 30.7918 37.0201 30.7494 35.3789H32.2953C32.3483 36.1518 32.9624 36.5436 33.8095 36.5436C34.6459 36.5436 35.186 36.1518 35.186 35.5801C35.186 35.0612 34.7095 34.8177 33.873 34.6059L33.0365 34.4048C31.7447 34.0871 30.9506 33.4412 30.9506 32.3189C30.9506 30.9212 32.1789 30 33.8518 30C35.546 30 36.6683 30.9424 36.6895 32.2977H35.1648Z" fill="#FF6135"/>
<path d="M37.562 37.7719V30.1059H42.7079V31.4188H39.1502V33.2824H42.4432V34.5954H39.1502V36.4589H42.7185V37.7719H37.562Z" fill="#FF6135"/>
<path d="M43.6757 37.7719V30.1059H46.6828C48.4299 30.1059 49.4252 31.0906 49.4252 32.6047C49.4252 33.653 48.9434 34.4153 48.0699 34.7859L49.7005 37.7719H47.9428L46.4816 35.0507H45.264V37.7719H43.6757ZM45.264 33.7589H46.3863C47.3287 33.7589 47.784 33.3671 47.784 32.6047C47.784 31.8318 47.3287 31.4083 46.3863 31.4083H45.264V33.7589Z" fill="#FF6135"/>
<path d="M49.9588 31.4188V30.1059H56.2378V31.4188H53.8871V37.7719H52.3095V31.4188H49.9588Z" fill="#FF6135"/>
</svg>
