<svg width="42" height="8" viewBox="0 0 42 8" fill="none" xmlns="http://www.w3.org/2000/svg">
<path d="M2.49023 7.16797H0V0.0976562H2.51953C4.64844 0.0976562 5.94727 1.42578 5.94727 3.62305C5.94727 5.83984 4.64844 7.16797 2.49023 7.16797ZM1.46484 5.9082H2.43164C3.7793 5.9082 4.48242 5.20508 4.48242 3.62305C4.48242 2.05078 3.7793 1.35742 2.44141 1.35742H1.46484V5.9082Z" fill="#FF6135"/>
<path d="M6.76172 7.16797V0.0976562H11.5078V1.30859H8.22656V3.02734H11.2637V4.23828H8.22656V5.95703H11.5176V7.16797H6.76172Z" fill="#FF6135"/>
<path d="M16.2383 2.11914C16.1797 1.5625 15.7305 1.23047 15.0176 1.23047C14.2754 1.23047 13.8652 1.57227 13.8555 2.04102C13.8457 2.54883 14.3828 2.7832 14.9883 2.91992L15.623 3.07617C16.834 3.34961 17.7422 3.96484 17.7422 5.14648C17.7422 6.44531 16.7266 7.26562 15.0078 7.26562C13.2988 7.26562 12.2051 6.47461 12.166 4.96094H13.5918C13.6406 5.67383 14.207 6.03516 14.9883 6.03516C15.7598 6.03516 16.2578 5.67383 16.2578 5.14648C16.2578 4.66797 15.8184 4.44336 15.0469 4.24805L14.2754 4.0625C13.084 3.76953 12.3516 3.17383 12.3516 2.13867C12.3516 0.849609 13.4844 0 15.0273 0C16.5898 0 17.625 0.869141 17.6445 2.11914H16.2383Z" fill="#FF6135"/>
<path d="M22.2871 2.11914C22.2285 1.5625 21.7793 1.23047 21.0664 1.23047C20.3242 1.23047 19.9141 1.57227 19.9043 2.04102C19.8945 2.54883 20.4316 2.7832 21.0371 2.91992L21.6719 3.07617C22.8828 3.34961 23.791 3.96484 23.791 5.14648C23.791 6.44531 22.7754 7.26562 21.0566 7.26562C19.3477 7.26562 18.2539 6.47461 18.2148 4.96094H19.6406C19.6895 5.67383 20.2559 6.03516 21.0371 6.03516C21.8086 6.03516 22.3066 5.67383 22.3066 5.14648C22.3066 4.66797 21.8672 4.44336 21.0957 4.24805L20.3242 4.0625C19.1328 3.76953 18.4004 3.17383 18.4004 2.13867C18.4004 0.849609 19.5332 0 21.0762 0C22.6387 0 23.6738 0.869141 23.6934 2.11914H22.2871Z" fill="#FF6135"/>
<path d="M24.498 7.16797V0.0976562H29.2441V1.30859H25.9629V3.02734H29V4.23828H25.9629V5.95703H29.2539V7.16797H24.498Z" fill="#FF6135"/>
<path d="M30.1367 7.16797V0.0976562H32.9102C34.5215 0.0976562 35.4395 1.00586 35.4395 2.40234C35.4395 3.36914 34.9951 4.07227 34.1895 4.41406L35.6934 7.16797H34.0723L32.7246 4.6582H31.6016V7.16797H30.1367ZM31.6016 3.4668H32.6367C33.5059 3.4668 33.9258 3.10547 33.9258 2.40234C33.9258 1.68945 33.5059 1.29883 32.6367 1.29883H31.6016V3.4668Z" fill="#FF6135"/>
<path d="M35.9316 1.30859V0.0976562H41.7227V1.30859H39.5547V7.16797H38.0996V1.30859H35.9316Z" fill="#FF6135"/>
</svg>
