<svg width="166" height="117" viewBox="0 0 166 117" fill="none" xmlns="http://www.w3.org/2000/svg">
<mask id="mask0_2_3967" style="mask-type:alpha" maskUnits="userSpaceOnUse" x="0" y="0" width="166" height="117">
<path d="M136 -1.31134e-06C152.569 -5.87108e-07 166 13.4315 166 30L166 87C166 103.569 152.569 117 136 117L30 117C13.4315 117 -4.52713e-06 103.569 -3.80289e-06 87L-1.31134e-06 30C-5.87108e-07 13.4315 13.4315 -6.66898e-06 30 -5.94475e-06L136 -1.31134e-06Z" fill="black"/>
</mask>
<g mask="url(#mask0_2_3967)">
<path fill-rule="evenodd" clip-rule="evenodd" d="M178.448 52.7271C162.163 44.3219 125.989 25.6518 87.6364 54.5345C81.718 58.9915 75.8925 62.3563 70.1974 64.8176C61.9293 64.0896 54.7934 61.461 47.7557 58.1996C45.155 56.9944 42.5492 55.6912 39.8961 54.3643C32.2816 50.5561 24.2765 46.5526 14.8775 44.1089C4.6356 41.446 -2.59287 42.3703 -7.48681 44.8332C-10.366 46.2822 -12.3865 48.2407 -13.6995 50.2231C-14.5075 49.7774 -15.2748 49.3661 -16 48.9957V121H182V54.5345C180.952 54.0196 179.765 53.4069 178.448 52.7271ZM64.3985 67.0343C33.4683 77.3321 6.90516 62.0457 -8.96582 52.9124C-9.69213 52.4944 -10.396 52.0893 -11.077 51.7002C-10.0438 50.2044 -8.45169 48.6773 -6.13819 47.513C-2.0738 45.4675 4.3644 44.4752 14.1225 47.0123C23.1902 49.3699 30.7883 53.1691 38.3261 56.9382L38.3262 56.9383C41.0349 58.2927 43.7358 59.6432 46.4943 60.9215C52.1432 63.5393 57.9541 65.8042 64.3985 67.0343Z" fill="#EFA7A7"/>
<path d="M153 60.4288C153 68.8162 140.953 75.6052 140.44 75.8856C140.305 75.9607 140.154 76 140 76C139.846 76 139.695 75.9607 139.56 75.8856C139.047 75.6052 127 68.8162 127 60.4288C127.002 58.4593 127.761 56.571 129.11 55.1783C130.459 53.7856 132.288 53.0022 134.196 53C136.593 53 138.692 54.064 140 55.8625C141.308 54.064 143.407 53 145.804 53C147.712 53.0022 149.541 53.7856 150.89 55.1783C152.239 56.571 152.998 58.4593 153 60.4288Z" fill="black"/>
<path d="M121 97.1989C121 101.94 114.513 105.777 114.237 105.935C114.164 105.978 114.083 106 114 106C113.917 106 113.836 105.978 113.763 105.935C113.487 105.777 107 101.94 107 97.1989C107.001 96.0857 107.41 95.0184 108.136 94.2312C108.863 93.444 109.848 93.0013 110.875 93C112.166 93 113.296 93.6014 114 94.6179C114.704 93.6014 115.834 93 117.125 93C118.152 93.0013 119.137 93.444 119.864 94.2312C120.59 95.0184 120.999 96.0857 121 97.1989Z" fill="black"/>
<path d="M92 80.4909C92 86.6903 83.6597 91.7082 83.3046 91.9154C83.2109 91.9709 83.1063 92 83 92C82.8937 92 82.7891 91.9709 82.6954 91.9154C82.3403 91.7082 74 86.6903 74 80.4909C74.0015 79.0351 74.5269 77.6394 75.4609 76.6101C76.3949 75.5807 77.6613 75.0016 78.9821 75C80.6415 75 82.0944 75.7864 83 77.1158C83.9056 75.7864 85.3585 75 87.0179 75C88.3387 75.0016 89.6051 75.5807 90.5391 76.6101C91.4731 77.6394 91.9985 79.0351 92 80.4909Z" fill="black"/>
</g>
</svg>
