<svg width="177" height="22" viewBox="0 0 177 22" fill="none" xmlns="http://www.w3.org/2000/svg">
<path d="M10.6743 4.9235H0V0.00683594H29.0389V4.9235H18.3036V20.8738H10.6743V4.9235Z" fill="black"/>
<path d="M40.9677 4.9235H30.2935V0.00683594H59.3323V4.9235H48.597V20.8738H40.9677V4.9235Z" fill="black"/>
<path d="M86.3434 0H104.647C110.249 0 113.504 2.20403 113.504 6.0492C113.504 8.46346 112.195 10.3148 109.774 11.2371C111.829 11.7729 112.785 13.0275 112.907 15.1433C113.056 17.6457 113.294 19.5853 113.924 20.867H106.051C105.576 19.7616 105.481 18.2425 105.393 15.7401C105.332 14.1329 104.62 13.5904 102.952 13.5904H93.9795V20.867H86.3502V0H86.3434ZM93.9728 4.74036V9.06024H103.216C104.945 9.06024 105.99 8.28713 105.99 6.91046C105.99 5.50667 104.973 4.73357 103.216 4.73357H93.9728V4.74036Z" fill="black"/>
<path d="M115.111 10.7353V0H122.74V10.8506C122.74 14.221 125.304 16.0996 128.885 16.0996C132.492 16.0996 135.029 14.221 135.029 10.8845V0H142.482V10.7353C142.482 17.5305 137.206 21.4096 128.769 21.4096C120.36 21.4096 115.111 17.5033 115.111 10.7353Z" fill="black"/>
<path d="M144.475 0H154.79L157.774 6.89012L160.724 13.7734L166.685 0H177V20.867H170.022L170.049 10.4301L170.076 6.64599L168.469 10.4301L163.966 20.867H157.225L152.722 10.4301L151.115 6.58496L151.142 20.867H144.462V0H144.475Z" fill="black"/>
<path d="M73.4652 0H65.1441L53.1 20.867H60.9124L63.0011 16.9608H75.1334L77.2222 20.867H85.5364L73.4652 0ZM69.4572 13.1495C69.3826 13.1563 69.308 13.1563 69.2402 13.1563C69.1656 13.1563 69.091 13.1563 69.0232 13.1495C66.8666 13.0071 65.6663 10.5725 66.7446 8.70082L69.2402 4.37415L71.7358 8.70082C72.8141 10.5725 71.6138 13.0071 69.4572 13.1495Z" fill="black"/>
</svg>
