<svg width="55" height="20" viewBox="0 0 55 20" fill="none" xmlns="http://www.w3.org/2000/svg">
<path d="M21.1719 0.0976562V7.16797H19.9023L16.7969 2.67578H16.7383V7.16797H15.2734V0.0976562H16.5625L19.6484 4.58984H19.7168V0.0976562H21.1719Z" fill="#FF6135"/>
<path d="M28.5879 3.63281C28.5879 5.9375 27.1523 7.26562 25.2871 7.26562C23.4023 7.26562 21.9766 5.92773 21.9766 3.63281C21.9766 1.32812 23.4023 0 25.2871 0C27.1523 0 28.5879 1.32812 28.5879 3.63281ZM27.0938 3.63281C27.0938 2.11914 26.3809 1.29883 25.2871 1.29883C24.1934 1.29883 23.4707 2.11914 23.4707 3.63281C23.4707 5.14648 24.1934 5.9668 25.2871 5.9668C26.3809 5.9668 27.0938 5.14648 27.0938 3.63281Z" fill="#FF6135"/>
<path d="M35.291 0.0976562V7.16797H34.0215L30.916 2.67578H30.8574V7.16797H29.3926V0.0976562H30.6816L33.7676 4.58984H33.8359V0.0976562H35.291Z" fill="#FF6135"/>
<path d="M39.4941 3.05664V4.20898H36.2715V3.05664H39.4941Z" fill="#FF6135"/>
<path d="M1.58203 19.168H0L2.45117 12.0977H4.33594L6.77734 19.168H5.20508L4.67773 17.5371H2.11914L1.58203 19.168ZM2.49023 16.3945H4.30664L3.41797 13.6895H3.36914L2.49023 16.3945Z" fill="#FF6135"/>
<path d="M7.32812 19.168V12.0977H8.79297V17.957H11.8398V19.168H7.32812Z" fill="#FF6135"/>
<path d="M16.9805 14.5586C16.8633 13.7773 16.2578 13.2988 15.4375 13.2988C14.334 13.2988 13.6113 14.1484 13.6113 15.6328C13.6113 17.1562 14.3438 17.9668 15.4277 17.9668C16.2383 17.9668 16.834 17.5176 16.9805 16.7559L18.4648 16.7656C18.2988 18.0742 17.2051 19.2656 15.4082 19.2656C13.5137 19.2656 12.1172 17.9375 12.1172 15.6328C12.1172 13.3281 13.543 12 15.4082 12C17.0391 12 18.2695 12.9375 18.4648 14.5586H16.9805Z" fill="#FF6135"/>
<path d="M25.7148 15.6328C25.7148 17.9375 24.2793 19.2656 22.4141 19.2656C20.5293 19.2656 19.1035 17.9277 19.1035 15.6328C19.1035 13.3281 20.5293 12 22.4141 12C24.2793 12 25.7148 13.3281 25.7148 15.6328ZM24.2207 15.6328C24.2207 14.1191 23.5078 13.2988 22.4141 13.2988C21.3203 13.2988 20.5977 14.1191 20.5977 15.6328C20.5977 17.1465 21.3203 17.9668 22.4141 17.9668C23.5078 17.9668 24.2207 17.1465 24.2207 15.6328Z" fill="#FF6135"/>
<path d="M26.5195 19.168V12.0977H27.9844V15.0273H31.0508V12.0977H32.5254V19.168H31.0508V16.2383H27.9844V19.168H26.5195Z" fill="#FF6135"/>
<path d="M39.9414 15.6328C39.9414 17.9375 38.5059 19.2656 36.6406 19.2656C34.7559 19.2656 33.3301 17.9277 33.3301 15.6328C33.3301 13.3281 34.7559 12 36.6406 12C38.5059 12 39.9414 13.3281 39.9414 15.6328ZM38.4473 15.6328C38.4473 14.1191 37.7344 13.2988 36.6406 13.2988C35.5469 13.2988 34.8242 14.1191 34.8242 15.6328C34.8242 17.1465 35.5469 17.9668 36.6406 17.9668C37.7344 17.9668 38.4473 17.1465 38.4473 15.6328Z" fill="#FF6135"/>
<path d="M40.7461 19.168V12.0977H42.2109V17.957H45.2578V19.168H40.7461Z" fill="#FF6135"/>
<path d="M47.4199 12.0977V19.168H45.9551V12.0977H47.4199Z" fill="#FF6135"/>
<path d="M53.0879 14.5586C52.9707 13.7773 52.3652 13.2988 51.5449 13.2988C50.4414 13.2988 49.7188 14.1484 49.7188 15.6328C49.7188 17.1562 50.4512 17.9668 51.5352 17.9668C52.3457 17.9668 52.9414 17.5176 53.0879 16.7559L54.5723 16.7656C54.4062 18.0742 53.3125 19.2656 51.5156 19.2656C49.6211 19.2656 48.2246 17.9375 48.2246 15.6328C48.2246 13.3281 49.6504 12 51.5156 12C53.1465 12 54.377 12.9375 54.5723 14.5586H53.0879Z" fill="#FF6135"/>
</svg>
