<svg width="67" height="67" viewBox="0 0 67 67" fill="none" xmlns="http://www.w3.org/2000/svg">
<rect width="66.1392" height="66.1392" rx="20" fill="black"/>
<path d="M25.9556 23.1059V30.7719H24.5791L21.212 25.9012H21.1485V30.7719H19.5602V23.1059H20.9579L24.3038 27.9765H24.3779V23.1059H25.9556Z" fill="#FF6135"/>
<path d="M33.9964 26.9389C33.9964 29.4377 32.4399 30.8777 30.4175 30.8777C28.374 30.8777 26.8281 29.4271 26.8281 26.9389C26.8281 24.44 28.374 23 30.4175 23C32.4399 23 33.9964 24.44 33.9964 26.9389ZM32.3764 26.9389C32.3764 25.2977 31.6034 24.4083 30.4175 24.4083C29.2316 24.4083 28.4481 25.2977 28.4481 26.9389C28.4481 28.5801 29.2316 29.4695 30.4175 29.4695C31.6034 29.4695 32.3764 28.5801 32.3764 26.9389Z" fill="#FF6135"/>
<path d="M41.2643 23.1059V30.7719H39.8878L36.5207 25.9012H36.4571V30.7719H34.8689V23.1059H36.2665L39.6125 27.9765H39.6866V23.1059H41.2643Z" fill="#FF6135"/>
<path d="M45.8215 26.3142V27.5636H42.3273V26.3142H45.8215Z" fill="#FF6135"/>
<path d="M4.71532 43.7829H3L5.65768 36.1169H7.70124L10.3483 43.7829H8.6436L8.07183 42.0146H5.29768L4.71532 43.7829ZM5.70003 40.7758H7.66947L6.70593 37.8428H6.65299L5.70003 40.7758Z" fill="#FF6135"/>
<path d="M10.9455 43.7829V36.1169H12.5338V42.4699H15.8373V43.7829H10.9455Z" fill="#FF6135"/>
<path d="M21.4111 38.7851C21.284 37.9381 20.6275 37.4192 19.7381 37.4192C18.5416 37.4192 17.7581 38.3404 17.7581 39.9499C17.7581 41.6017 18.5522 42.4805 19.7275 42.4805C20.6063 42.4805 21.2522 41.9934 21.4111 41.1675L23.0205 41.1781C22.8405 42.597 21.6546 43.8887 19.7063 43.8887C17.6522 43.8887 16.1381 42.4487 16.1381 39.9499C16.1381 37.451 17.684 36.011 19.7063 36.011C21.4746 36.011 22.8087 37.0275 23.0205 38.7851H21.4111Z" fill="#FF6135"/>
<path d="M30.8813 39.9499C30.8813 42.4487 29.3248 43.8887 27.3024 43.8887C25.2589 43.8887 23.713 42.4381 23.713 39.9499C23.713 37.451 25.2589 36.011 27.3024 36.011C29.3248 36.011 30.8813 37.451 30.8813 39.9499ZM29.2613 39.9499C29.2613 38.3087 28.4883 37.4192 27.3024 37.4192C26.1165 37.4192 25.333 38.3087 25.333 39.9499C25.333 41.5911 26.1165 42.4805 27.3024 42.4805C28.4883 42.4805 29.2613 41.5911 29.2613 39.9499Z" fill="#FF6135"/>
<path d="M31.7538 43.7829V36.1169H33.342V39.2934H36.6668V36.1169H38.2656V43.7829H36.6668V40.6063H33.342V43.7829H31.7538Z" fill="#FF6135"/>
<path d="M46.3064 39.9499C46.3064 42.4487 44.7499 43.8887 42.7276 43.8887C40.684 43.8887 39.1381 42.4381 39.1381 39.9499C39.1381 37.451 40.684 36.011 42.7276 36.011C44.7499 36.011 46.3064 37.451 46.3064 39.9499ZM44.6864 39.9499C44.6864 38.3087 43.9135 37.4192 42.7276 37.4192C41.5417 37.4192 40.7581 38.3087 40.7581 39.9499C40.7581 41.5911 41.5417 42.4805 42.7276 42.4805C43.9135 42.4805 44.6864 41.5911 44.6864 39.9499Z" fill="#FF6135"/>
<path d="M47.1789 43.7829V36.1169H48.7672V42.4699H52.0707V43.7829H47.1789Z" fill="#FF6135"/>
<path d="M54.415 36.1169V43.7829H52.8268V36.1169H54.415Z" fill="#FF6135"/>
<path d="M60.5605 38.7851C60.4334 37.9381 59.777 37.4192 58.8875 37.4192C57.6911 37.4192 56.9075 38.3404 56.9075 39.9499C56.9075 41.6017 57.7016 42.4805 58.8769 42.4805C59.7558 42.4805 60.4017 41.9934 60.5605 41.1675L62.1699 41.1781C61.9899 42.597 60.804 43.8887 58.8558 43.8887C56.8016 43.8887 55.2875 42.4487 55.2875 39.9499C55.2875 37.451 56.8334 36.011 58.8558 36.011C60.624 36.011 61.9582 37.0275 62.1699 38.7851H60.5605Z" fill="#FF6135"/>
</svg>
