<svg width="166" height="117" viewBox="0 0 166 117" fill="none" xmlns="http://www.w3.org/2000/svg">
<mask id="mask0_2_3976" style="mask-type:alpha" maskUnits="userSpaceOnUse" x="0" y="0" width="166" height="117">
<path d="M136 -1.31134e-06C152.569 -5.87108e-07 166 13.4315 166 30L166 87C166 103.569 152.569 117 136 117L30 117C13.4315 117 -4.52713e-06 103.569 -3.80289e-06 87L-1.31134e-06 30C-5.87108e-07 13.4315 13.4315 -6.66898e-06 30 -5.94475e-06L136 -1.31134e-06Z" fill="black"/>
</mask>
<g mask="url(#mask0_2_3976)">
<path d="M87.6364 54.5345L88.0875 55.1336L87.6364 54.5345ZM178.448 52.7271L178.104 53.3936V53.3936L178.448 52.7271ZM70.1974 64.8176L70.1316 65.5647L70.3207 65.5814L70.4949 65.5061L70.1974 64.8176ZM47.7557 58.1996L48.071 57.5191L47.7557 58.1996ZM39.8961 54.3643L39.5606 55.0351L39.8961 54.3643ZM14.8775 44.1089L15.0662 43.383L14.8775 44.1089ZM-7.48681 44.8332L-7.82396 44.1632L-7.48681 44.8332ZM-13.6995 50.2231L-14.0617 50.8798L-13.4561 51.2138L-13.0742 50.6372L-13.6995 50.2231ZM-16 48.9957L-15.6589 48.3278L-16.75 47.7706V48.9957H-16ZM-16 121H-16.75V121.75H-16V121ZM182 121V121.75H182.75V121H182ZM182 54.5345H182.75V54.0674L182.331 53.8614L182 54.5345ZM-8.96582 52.9124L-8.59174 52.2624L-8.96582 52.9124ZM64.3985 67.0343L64.6354 67.7459L67.3652 66.8371L64.5391 66.2976L64.3985 67.0343ZM-11.077 51.7002L-11.6941 51.274L-12.1583 51.946L-11.4491 52.3513L-11.077 51.7002ZM-6.13819 47.513L-5.80104 48.1829L-6.13819 47.513ZM14.1225 47.0123L13.9338 47.7382L14.1225 47.0123ZM38.3261 56.9382L37.9907 57.6091L37.9907 57.6091L38.3261 56.9382ZM38.3262 56.9383L38.6616 56.2674L38.6616 56.2674L38.3262 56.9383ZM46.4943 60.9215L46.179 61.602V61.602L46.4943 60.9215ZM87.1852 53.9354C86.9157 54.1383 86.6464 54.339 86.3773 54.5374L87.2674 55.7447C87.5406 55.5433 87.814 55.3396 88.0875 55.1336L87.1852 53.9354ZM84.7443 55.7155C84.1909 56.1059 83.6385 56.4869 83.0871 56.8584L83.9253 58.1024C84.4857 57.7247 85.047 57.3377 85.6091 56.9411L84.7443 55.7155ZM81.4058 57.9644C80.8362 58.33 80.2677 58.6857 79.7004 59.0317L80.4814 60.3124C81.0586 59.9603 81.6369 59.5985 82.2161 59.2267L81.4058 57.9644ZM77.971 60.0585C77.3853 60.3969 76.8009 60.725 76.2177 61.0432L76.936 62.36C77.53 62.036 78.1252 61.7018 78.7214 61.3574L77.971 60.0585ZM74.4408 61.9837C73.8395 62.2922 73.2396 62.5903 72.6412 62.878L73.2911 64.2298C73.9013 63.9365 74.5128 63.6327 75.1256 63.3182L74.4408 61.9837ZM70.8189 63.7245C70.5122 63.8621 70.2058 63.9969 69.8999 64.1291L70.4949 65.5061C70.8071 65.3711 71.1197 65.2335 71.4326 65.0932L70.8189 63.7245ZM70.2632 64.0705C69.9409 64.0421 69.6203 64.0108 69.3014 63.9766L69.1416 65.4681C69.4699 65.5033 69.7998 65.5355 70.1316 65.5647L70.2632 64.0705ZM67.385 63.7347C66.7431 63.6414 66.1077 63.5367 65.4782 63.4213L65.2076 64.8967C65.855 65.0154 66.5087 65.1231 67.1692 65.2191L67.385 63.7347ZM63.5838 63.0383C62.9514 62.8986 62.3246 62.7484 61.7026 62.5883L61.3287 64.041C61.9669 64.2052 62.6106 64.3595 63.2603 64.503L63.5838 63.0383ZM59.8365 62.0749C59.2155 61.8932 58.5989 61.7021 57.986 61.5023L57.5211 62.9285C58.1478 63.1328 58.779 63.3284 59.4153 63.5146L59.8365 62.0749ZM56.1513 60.8751C55.5419 60.6573 54.9357 60.4315 54.332 60.1984L53.7916 61.5977C54.4064 61.8351 55.0245 62.0654 55.6465 62.2876L56.1513 60.8751ZM52.5274 59.4776C51.9286 59.2308 51.3318 58.9774 50.7362 58.7182L50.1377 60.0936C50.7415 60.3564 51.3473 60.6136 51.9557 60.8644L52.5274 59.4776ZM48.957 57.9259C48.6615 57.7916 48.3662 57.6559 48.071 57.5191L47.4403 58.8801C47.7386 59.0183 48.0371 59.1554 48.3359 59.2913L48.957 57.9259ZM48.071 57.5191C47.7428 57.367 47.4144 57.2133 47.0857 57.0581L46.4453 58.4145C46.777 58.5711 47.1087 58.7264 47.4403 58.8801L48.071 57.5191ZM45.1218 56.1165C44.4712 55.8002 43.8189 55.4795 43.1641 55.1553L42.4986 56.4996C43.1557 56.8249 43.8114 57.1473 44.4662 57.4656L45.1218 56.1165ZM41.2091 54.1822C40.884 54.0198 40.5583 53.8569 40.2316 53.6935L39.5606 55.0351C39.8873 55.1985 40.2133 55.3615 40.5388 55.5241L41.2091 54.1822ZM40.2316 53.6935C39.9438 53.5496 39.6552 53.4053 39.3661 53.2608L38.6956 54.6026C38.9845 54.747 39.2728 54.8911 39.5606 55.0351L40.2316 53.6935ZM37.6322 52.3968C37.0557 52.1106 36.4761 51.8243 35.893 51.5386L35.233 52.8856C35.8133 53.1699 36.3905 53.4551 36.9653 53.7404L37.6322 52.3968ZM34.1472 50.6911C33.5661 50.4119 32.9812 50.1339 32.3921 49.858L31.7559 51.2164C32.3399 51.4899 32.9203 51.7657 33.4975 52.0431L34.1472 50.6911ZM30.6264 49.0435C30.0386 48.7767 29.4463 48.5126 28.8492 48.2518L28.2487 49.6263C28.8389 49.8841 29.4247 50.1454 30.0066 50.4094L30.6264 49.0435ZM27.0587 47.4863C26.4622 47.2371 25.8608 46.9916 25.254 46.7507L24.7004 48.1448C25.2985 48.3823 25.8917 48.6243 26.4804 48.8703L27.0587 47.4863ZM23.4351 46.0486C22.8294 45.8217 22.2182 45.5997 21.6013 45.3832L21.1046 46.7985C21.7113 47.0114 22.3125 47.2299 22.9088 47.4533L23.4351 46.0486ZM19.7524 44.7573C19.1371 44.5567 18.5159 44.362 17.8886 44.1737L17.4574 45.6104C18.0731 45.7952 18.6831 45.9863 19.2875 46.1834L19.7524 44.7573ZM16.0104 43.6349C15.6972 43.5492 15.3825 43.4652 15.0662 43.383L14.6887 44.8347C14.9989 44.9154 15.3075 44.9977 15.6147 45.0817L16.0104 43.6349ZM15.0662 43.383C14.7517 43.3012 14.44 43.2228 14.1309 43.1476L13.7764 44.6051C14.0777 44.6784 14.3818 44.7549 14.6887 44.8347L15.0662 43.383ZM12.2485 42.7227C11.603 42.5885 10.97 42.4692 10.3492 42.364L10.0987 43.843C10.7007 43.9449 11.3155 44.0608 11.9433 44.1913L12.2485 42.7227ZM8.43382 42.0793C7.77645 41.9955 7.13383 41.9283 6.50569 41.8771L6.38378 43.3722C6.9887 43.4215 7.60875 43.4862 8.24419 43.5672L8.43382 42.0793ZM4.56822 41.7673C3.90136 41.7467 3.25219 41.7448 2.62039 41.7608L2.65826 43.2603C3.26123 43.2451 3.88227 43.2468 4.52177 43.2666L4.56822 41.7673ZM0.672201 41.87C0.00362206 41.929 -0.643466 42.009 -1.26952 42.1086L-1.03385 43.5899C-0.443126 43.496 0.169266 43.4202 0.80389 43.3643L0.672201 41.87ZM-3.19444 42.4907C-3.85154 42.6484 -4.48227 42.829 -5.08727 43.0306L-4.61322 44.4537C-4.04979 44.266 -3.46048 44.0971 -2.84444 43.9493L-3.19444 42.4907ZM-6.9293 43.741C-7.23528 43.8762 -7.53347 44.0171 -7.82396 44.1632L-7.14965 45.5031C-6.88171 45.3683 -6.60626 45.2382 -6.32316 45.1131L-6.9293 43.741ZM-7.82396 44.1632C-8.15207 44.3284 -8.46973 44.5 -8.77711 44.6775L-8.02711 45.9765C-7.74463 45.8134 -7.45222 45.6554 -7.14965 45.5031L-7.82396 44.1632ZM-10.5871 45.8728C-11.1879 46.325 -11.7374 46.8 -12.2377 47.2901L-11.1879 48.3616C-10.7338 47.9167 -10.2337 47.4842 -9.68516 47.0713L-10.5871 45.8728ZM-13.688 48.9197C-13.9155 49.2144 -14.1276 49.5112 -14.3248 49.8089L-13.0742 50.6372C-12.897 50.3697 -12.706 50.1023 -12.5007 49.8365L-13.688 48.9197ZM-13.3373 49.5663C-13.5314 49.4593 -13.7232 49.3541 -13.9129 49.251L-14.6296 50.5687C-14.4427 50.6703 -14.2534 50.7741 -14.0617 50.8798L-13.3373 49.5663ZM-15.0731 48.6309C-15.271 48.5272 -15.4663 48.4261 -15.6589 48.3278L-16.3411 49.6637C-16.1535 49.7595 -15.9628 49.8582 -15.7691 49.9596L-15.0731 48.6309ZM-16.75 48.9957V49.9958H-15.25V48.9957H-16.75ZM-16.75 51.9959V53.996H-15.25V51.9959H-16.75ZM-16.75 55.9961V57.9963H-15.25V55.9961H-16.75ZM-16.75 59.9964V61.9965H-15.25V59.9964H-16.75ZM-16.75 63.9966V65.9967H-15.25V63.9966H-16.75ZM-16.75 67.9968V69.997H-15.25V67.9968H-16.75ZM-16.75 71.9971V73.9972H-15.25V71.9971H-16.75ZM-16.75 75.9973V77.9974H-15.25V75.9973H-16.75ZM-16.75 79.9976V81.9977H-15.25V79.9976H-16.75ZM-16.75 83.9978V85.9979H-15.25V83.9978H-16.75ZM-16.75 87.998V89.9982H-15.25V87.998H-16.75ZM-16.75 91.9983V93.9984H-15.25V91.9983H-16.75ZM-16.75 95.9985V97.9986H-15.25V95.9985H-16.75ZM-16.75 99.9987V101.999H-15.25V99.9987H-16.75ZM-16.75 103.999V105.999H-15.25V103.999H-16.75ZM-16.75 107.999V109.999H-15.25V107.999H-16.75ZM-16.75 111.999V114H-15.25V111.999H-16.75ZM-16.75 116V118H-15.25V116H-16.75ZM-16.75 120V121H-15.25V120H-16.75ZM-16 121.75H-15.01V120.25H-16V121.75ZM-13.03 121.75H-11.05V120.25H-13.03V121.75ZM-9.07 121.75H-7.09V120.25H-9.07V121.75ZM-5.11 121.75H-3.13V120.25H-5.11V121.75ZM-1.15 121.75H0.829998V120.25H-1.15V121.75ZM2.81 121.75H4.79V120.25H2.81V121.75ZM6.77 121.75H8.75V120.25H6.77V121.75ZM10.73 121.75H12.71V120.25H10.73V121.75ZM14.69 121.75H16.67V120.25H14.69V121.75ZM18.65 121.75H20.63V120.25H18.65V121.75ZM22.61 121.75H24.59V120.25H22.61V121.75ZM26.57 121.75H28.55V120.25H26.57V121.75ZM30.53 121.75H32.51V120.25H30.53V121.75ZM34.49 121.75H36.47V120.25H34.49V121.75ZM38.45 121.75H40.43V120.25H38.45V121.75ZM42.41 121.75H44.39V120.25H42.41V121.75ZM46.37 121.75H48.35V120.25H46.37V121.75ZM50.33 121.75H52.31V120.25H50.33V121.75ZM54.29 121.75H56.27V120.25H54.29V121.75ZM58.25 121.75H60.23V120.25H58.25V121.75ZM62.21 121.75H64.19V120.25H62.21V121.75ZM66.17 121.75H68.15V120.25H66.17V121.75ZM70.13 121.75H72.11V120.25H70.13V121.75ZM74.09 121.75H76.07V120.25H74.09V121.75ZM78.05 121.75H80.03V120.25H78.05V121.75ZM82.01 121.75H83.99V120.25H82.01V121.75ZM85.9701 121.75H87.9501V120.25H85.9701V121.75ZM89.9301 121.75H91.9101V120.25H89.9301V121.75ZM93.8901 121.75H95.8701V120.25H93.8901V121.75ZM97.8501 121.75H99.8301V120.25H97.8501V121.75ZM101.81 121.75H103.79V120.25H101.81V121.75ZM105.77 121.75H107.75V120.25H105.77V121.75ZM109.73 121.75H111.71V120.25H109.73V121.75ZM113.69 121.75H115.67V120.25H113.69V121.75ZM117.65 121.75H119.63V120.25H117.65V121.75ZM121.61 121.75H123.59V120.25H121.61V121.75ZM125.57 121.75H127.55V120.25H125.57V121.75ZM129.53 121.75H131.51V120.25H129.53V121.75ZM133.49 121.75H135.47V120.25H133.49V121.75ZM137.45 121.75H139.43V120.25H137.45V121.75ZM141.41 121.75H143.39V120.25H141.41V121.75ZM145.37 121.75H147.35V120.25H145.37V121.75ZM149.33 121.75H151.31V120.25H149.33V121.75ZM153.29 121.75H155.27V120.25H153.29V121.75ZM157.25 121.75H159.23V120.25H157.25V121.75ZM161.21 121.75H163.19V120.25H161.21V121.75ZM165.17 121.75H167.15V120.25H165.17V121.75ZM169.13 121.75H171.11V120.25H169.13V121.75ZM173.09 121.75H175.07V120.25H173.09V121.75ZM177.05 121.75H179.03V120.25H177.05V121.75ZM181.01 121.75H182V120.25H181.01V121.75ZM182.75 121V120.023H181.25V121H182.75ZM182.75 118.068V116.113H181.25V118.068H182.75ZM182.75 114.158V112.203H181.25V114.158H182.75ZM182.75 110.248V108.293H181.25V110.248H182.75ZM182.75 106.338V104.384H181.25V106.338H182.75ZM182.75 102.429V100.474H181.25V102.429H182.75ZM182.75 98.519V96.5642H181.25V98.519H182.75ZM182.75 94.6093V92.6544H181.25V94.6093H182.75ZM182.75 90.6995V88.7447H181.25V90.6995H182.75ZM182.75 86.7898V84.8349H181.25V86.7898H182.75ZM182.75 82.8801V80.9252H181.25V82.8801H182.75ZM182.75 78.9703V77.0155H181.25V78.9703H182.75ZM182.75 75.0606V73.1057H181.25V75.0606H182.75ZM182.75 71.1509V69.196H181.25V71.1509H182.75ZM182.75 67.2411V65.2863H181.25V67.2411H182.75ZM182.75 63.3314V61.3765H181.25V63.3314H182.75ZM182.75 59.4217V57.4668H181.25V59.4217H182.75ZM182.75 55.5119V54.5345H181.25V55.5119H182.75ZM182.331 53.8614C182.047 53.7218 181.752 53.5746 181.446 53.4204L180.771 54.7599C181.08 54.9158 181.38 55.0653 181.669 55.2076L182.331 53.8614ZM179.677 52.5171C179.389 52.3688 179.094 52.2166 178.792 52.0606L178.104 53.3936C178.406 53.5495 178.702 53.702 178.99 53.8506L179.677 52.5171ZM178.792 52.0606C178.504 51.9121 178.21 51.7602 177.91 51.6053L177.223 52.9388C177.522 53.0933 177.816 53.245 178.104 53.3936L178.792 52.0606ZM176.11 50.6829C175.527 50.3861 174.924 50.0818 174.303 49.7718L173.633 51.1141C174.25 51.4219 174.849 51.7244 175.429 52.0197L176.11 50.6829ZM172.486 48.8774C171.892 48.5888 171.282 48.297 170.658 48.0035L170.02 49.3607C170.638 49.6515 171.242 49.9406 171.831 50.2267L172.486 48.8774ZM168.818 47.1527C168.212 46.8777 167.593 46.6023 166.963 46.3276L166.364 47.7027C166.987 47.9742 167.598 48.2466 168.198 48.5187L168.818 47.1527ZM165.092 45.5304C164.475 45.2734 163.848 45.0179 163.211 44.7651L162.658 46.1594C163.287 46.409 163.906 46.6611 164.516 46.915L165.092 45.5304ZM161.322 44.0352C160.695 43.7995 160.06 43.5671 159.415 43.3387L158.914 44.7524C159.549 44.9776 160.176 45.2068 160.794 45.4392L161.322 44.0352ZM157.492 42.6777C156.853 42.4653 156.206 42.2573 155.552 42.0545L155.108 43.4874C155.752 43.687 156.389 43.8918 157.019 44.1011L157.492 42.6777ZM153.609 41.4753C152.963 41.29 152.31 41.1104 151.65 40.9369L151.268 42.3876C151.917 42.5582 152.56 42.735 153.196 42.9172L153.609 41.4753ZM149.674 40.4415C149.018 40.2852 148.357 40.1355 147.689 39.9928L147.376 41.4597C148.032 41.5998 148.682 41.747 149.326 41.9006L149.674 40.4415ZM145.697 39.5924C145.034 39.4674 144.365 39.3499 143.691 39.2403L143.45 40.7209C144.112 40.8284 144.768 40.9438 145.42 41.0665L145.697 39.5924ZM141.675 38.9391C141.007 38.8482 140.335 38.7654 139.658 38.6913L139.494 40.1824C140.158 40.255 140.818 40.3362 141.472 40.4254L141.675 38.9391ZM137.629 38.4967C136.955 38.4413 136.276 38.3947 135.594 38.3575L135.512 39.8553C136.181 39.8917 136.845 39.9373 137.506 39.9917L137.629 38.4967ZM133.562 38.2751C132.886 38.2572 132.206 38.2487 131.522 38.2502L131.525 39.7502C132.194 39.7488 132.86 39.757 133.522 39.7746L133.562 38.2751ZM129.484 38.2839C128.809 38.3048 128.131 38.3356 127.45 38.3767L127.541 39.874C128.207 39.8338 128.87 39.8036 129.53 39.7831L129.484 38.2839ZM125.412 38.53C124.741 38.5905 124.066 38.6613 123.389 38.7427L123.568 40.232C124.23 40.1524 124.89 40.0832 125.546 40.024L125.412 38.53ZM121.368 39.0162C120.699 39.117 120.028 39.2284 119.353 39.3508L119.621 40.8267C120.281 40.707 120.938 40.5981 121.592 40.4995L121.368 39.0162ZM117.359 39.7436C116.696 39.8845 116.031 40.0361 115.363 40.199L115.719 41.6562C116.371 41.4969 117.022 41.3486 117.67 41.2108L117.359 39.7436ZM113.398 40.7094C112.746 40.8889 112.093 41.0792 111.437 41.2807L111.878 42.7144C112.519 42.5173 113.159 42.3311 113.796 42.1555L113.398 40.7094ZM109.5 41.9075C108.862 42.1241 108.222 42.3515 107.581 42.5899L108.104 43.9958C108.732 43.7624 109.358 43.5398 109.982 43.3278L109.5 41.9075ZM105.678 43.3286C105.055 43.5805 104.431 43.8429 103.805 44.1162L104.406 45.4907C105.019 45.2229 105.63 44.9658 106.24 44.7191L105.678 43.3286ZM101.943 44.9609C101.336 45.246 100.729 45.5414 100.12 45.8474L100.794 47.1875C101.391 46.8874 101.987 46.5978 102.581 46.3184L101.943 44.9609ZM98.3039 46.7908C97.7143 47.1069 97.1239 47.433 96.5327 47.7695L97.2746 49.0732C97.8549 48.7429 98.4342 48.4229 99.0126 48.1128L98.3039 46.7908ZM94.7671 48.8037C94.1944 49.1487 93.6211 49.5036 93.0471 49.8684L93.8518 51.1343C94.4157 50.7759 94.9789 50.4273 95.5412 50.0885L94.7671 48.8037ZM91.3362 50.9846C90.78 51.3569 90.2232 51.7387 89.6659 52.1301L90.5282 53.3575C91.0763 52.9725 91.6237 52.5971 92.1705 52.2312L91.3362 50.9846ZM88.0127 53.3192C87.737 53.5222 87.4611 53.7276 87.1852 53.9354L88.0875 55.1336C88.3591 54.9291 88.6306 54.727 88.9019 54.5273L88.0127 53.3192ZM-8.59174 52.2624C-8.7689 52.1604 -8.9448 52.0592 -9.11937 51.9588L-9.86732 53.259C-9.69288 53.3593 -9.51709 53.4605 -9.33991 53.5624L-8.59174 52.2624ZM-10.1758 51.3519C-10.3536 51.25 -10.5299 51.149 -10.7048 51.049L-11.4491 52.3513C-11.2749 52.4509 -11.0991 52.5515 -10.9218 52.6532L-10.1758 51.3519ZM-10.4599 52.1264C-10.3192 51.9228 -10.1672 51.7182 -10.0034 51.5138L-11.1737 50.5756C-11.36 50.8079 -11.5332 51.0411 -11.6941 51.274L-10.4599 52.1264ZM-8.96482 50.3852C-8.60894 50.0465 -8.21602 49.7147 -7.78351 49.3956L-8.67406 48.1886C-9.15713 48.545 -9.59794 48.9171 -9.99885 49.2986L-8.96482 50.3852ZM-6.48602 48.551C-6.26575 48.4248 -6.03749 48.3019 -5.80104 48.1829L-6.47535 46.843C-6.73583 46.9741 -6.98788 47.1097 -7.23166 47.2494L-6.48602 48.551ZM-5.80104 48.1829C-5.51602 48.0395 -5.21825 47.9012 -4.90731 47.7692L-5.49363 46.3885C-5.83414 46.5331 -6.16126 46.685 -6.47535 46.843L-5.80104 48.1829ZM-3.04123 47.1056C-2.43524 46.9283 -1.78971 46.7735 -1.10269 46.6462L-1.37602 45.1713C-2.11165 45.3077 -2.80658 45.474 -3.46243 45.6659L-3.04123 47.1056ZM0.881142 46.37C1.51992 46.3087 2.18903 46.2697 2.88958 46.2557L2.85961 44.756C2.12239 44.7707 1.41547 44.8119 0.737877 44.8769L0.881142 46.37ZM4.90913 46.2831C5.55857 46.3128 6.23175 46.3627 6.92933 46.4347L7.08324 44.9426C6.35811 44.8678 5.65642 44.8157 4.97754 44.7847L4.90913 46.2831ZM8.94562 46.695C9.59416 46.7949 10.2617 46.9129 10.9487 47.0501L11.2424 45.5791C10.5344 45.4378 9.84511 45.3159 9.17411 45.2125L8.94562 46.695ZM12.9422 47.4898C13.2687 47.5684 13.5992 47.6512 13.9338 47.7382L14.3113 46.2865C13.9681 46.1972 13.6288 46.1123 13.2934 46.0315L12.9422 47.4898ZM13.9338 47.7382C14.234 47.8162 14.5325 47.8959 14.8295 47.9771L15.2251 46.5302C14.9221 46.4473 14.6175 46.3661 14.3113 46.2865L13.9338 47.7382ZM16.6121 48.488C17.208 48.6666 17.7979 48.8514 18.3822 49.0417L18.8468 47.6154C18.2515 47.4215 17.6504 47.2333 17.0428 47.0511L16.6121 48.488ZM20.1398 49.6362C20.7266 49.842 21.3081 50.0532 21.8847 50.2692L22.411 48.8646C21.8249 48.645 21.2335 48.4302 20.6363 48.2207L20.1398 49.6362ZM23.6176 50.9384C24.1957 51.1681 24.7692 51.4024 25.3388 51.6406L25.9177 50.2569C25.3403 50.0153 24.7584 49.7776 24.1715 49.5444L23.6176 50.9384ZM27.0488 52.3727C27.6189 52.6221 28.1854 52.8751 28.7488 53.1312L29.3695 51.7656C28.8001 51.5069 28.2271 51.2509 27.65 50.9985L27.0488 52.3727ZM30.4405 53.9128C31.0043 54.1773 31.5656 54.4443 32.1249 54.7134L32.7752 53.3617C32.212 53.0907 31.6463 52.8216 31.0775 52.5548L30.4405 53.9128ZM33.8039 55.5292C34.3637 55.8037 34.922 56.0796 35.4795 56.3564L36.1465 55.0128C35.5874 54.7352 35.0268 54.4582 34.4642 54.1824L33.8039 55.5292ZM37.1536 57.1906C37.4327 57.33 37.7117 57.4695 37.9907 57.6091L38.6616 56.2674C38.3826 56.1279 38.1034 55.9883 37.824 55.8487L37.1536 57.1906ZM37.9907 57.6091L37.9907 57.6091L38.6616 56.2674L38.6616 56.2674L37.9907 57.6091ZM37.9908 57.6091L37.9908 57.6091L38.6616 56.2674L38.6616 56.2674L37.9908 57.6091ZM37.9908 57.6091C38.3295 57.7785 38.6683 57.9479 39.0072 58.1171L39.6774 56.7752C39.3389 56.6061 39.0004 56.4369 38.6616 56.2674L37.9908 57.6091ZM41.0439 59.1304C41.7237 59.4667 42.405 59.8014 43.0887 60.1334L43.7439 58.784C43.0643 58.4541 42.3864 58.121 41.7091 57.7859L41.0439 59.1304ZM45.1453 61.1185C45.4889 61.2807 45.8334 61.4419 46.179 61.602L46.8097 60.2411C46.4675 60.0825 46.1261 59.9227 45.7853 59.762L45.1453 61.1185ZM46.179 61.602C46.4672 61.7356 46.756 61.8683 47.0453 62L47.6669 60.6349C47.3808 60.5046 47.095 60.3733 46.8097 60.2411L46.179 61.602ZM48.7879 62.7779C49.3707 63.0325 49.9563 63.2826 50.5451 63.5273L51.1208 62.1422C50.5409 61.9012 49.9637 61.6547 49.3885 61.4034L48.7879 62.7779ZM52.318 64.2434C52.9109 64.4757 53.5073 64.7019 54.1079 64.9214L54.6228 63.5126C54.0336 63.2972 53.4479 63.0751 52.8652 62.8468L52.318 64.2434ZM55.9154 65.5566C56.519 65.76 57.1272 65.9562 57.7404 66.1443L58.1804 64.7103C57.5808 64.5264 56.9857 64.3344 56.3945 64.1351L55.9154 65.5566ZM59.5826 66.6805C60.1968 66.8494 60.8162 67.0098 61.4413 67.1611L61.7942 65.7032C61.1845 65.5556 60.5801 65.3991 59.9804 65.2342L59.5826 66.6805ZM63.3153 67.583C63.628 67.648 63.9422 67.7108 64.2579 67.771L64.5391 66.2976C64.2317 66.2389 63.9256 66.1778 63.6209 66.1144L63.3153 67.583ZM64.1616 66.3227C63.8397 66.4299 63.5184 66.5342 63.1975 66.6358L63.6503 68.0659C63.9782 67.962 64.3066 67.8554 64.6354 67.7459L64.1616 66.3227ZM61.2778 67.2126C60.6261 67.3979 59.9765 67.5719 59.3291 67.735L59.6955 69.1896C60.3576 69.0228 61.0218 68.8448 61.688 68.6554L61.2778 67.2126ZM57.3713 68.1968C56.7136 68.3414 56.0582 68.4748 55.4052 68.5975L55.6822 70.0717C56.3502 69.9462 57.0206 69.8097 57.6934 69.6618L57.3713 68.1968ZM53.4219 68.9385C52.7549 69.0426 52.0905 69.1357 51.4287 69.2181L51.614 70.7066C52.291 70.6223 52.9708 70.5271 53.6532 70.4206L53.4219 68.9385ZM49.4313 69.4354C48.7614 69.4978 48.0944 69.5495 47.4303 69.5908L47.5235 71.0879C48.2028 71.0456 48.8851 70.9928 49.5704 70.9289L49.4313 69.4354ZM45.4183 69.6849C44.7446 69.7061 44.0739 69.7168 43.4065 69.7175L43.408 71.2175C44.0905 71.2168 44.7763 71.2058 45.4654 71.1841L45.4183 69.6849ZM41.3962 69.6894C40.7237 69.6699 40.0545 69.6405 39.3888 69.6015L39.3012 71.099C39.9814 71.1388 40.6653 71.1689 41.3528 71.1887L41.3962 69.6894ZM37.3806 69.4546C36.7091 69.3957 36.0412 69.3274 35.3772 69.2501L35.2037 70.74C35.8816 70.819 36.5636 70.8888 37.2495 70.9489L37.3806 69.4546ZM33.381 68.9893C32.7145 68.8929 32.0518 68.7876 31.3933 68.6741L31.1384 70.1523C31.81 70.2681 32.486 70.3755 33.1662 70.4739L33.381 68.9893ZM29.415 68.3059C28.7532 68.1738 28.0957 68.0336 27.4427 67.8857L27.1115 69.3487C27.7768 69.4993 28.4467 69.6422 29.1213 69.7769L29.415 68.3059ZM25.4817 67.416C24.8273 67.2508 24.1777 67.0782 23.5328 66.8989L23.1309 68.344C23.787 68.5265 24.4482 68.7021 25.1144 68.8704L25.4817 67.416ZM21.5966 66.3362C20.9505 66.1404 20.3095 65.9381 19.6737 65.73L19.207 67.1555C19.8531 67.367 20.5046 67.5726 21.1616 67.7717L21.5966 66.3362ZM17.7639 65.0821C17.1252 64.8578 16.492 64.6281 15.8645 64.3933L15.3389 65.7983C15.9757 66.0365 16.6185 66.2697 17.2671 66.4974L17.7639 65.0821ZM13.9789 63.6669C13.3489 63.4172 12.7249 63.1629 12.1072 62.9048L11.5288 64.2888C12.1548 64.5504 12.7873 64.8081 13.4262 65.0614L13.9789 63.6669ZM10.2492 62.109C9.62763 61.8364 9.01274 61.5604 8.40466 61.2816L7.77958 62.6452C8.39488 62.9273 9.0173 63.2067 9.64669 63.4827L10.2492 62.109ZM6.57321 60.4246C5.95942 60.1317 5.35305 59.8365 4.75425 59.54L4.08863 60.8843C4.69359 61.1838 5.30646 61.4821 5.92707 61.7783L6.57321 60.4246ZM2.94702 58.6299C2.33976 58.3191 1.74089 58.0076 1.15058 57.6963L0.450983 59.0232C1.04631 59.3371 1.65057 59.6514 2.26356 59.9651L2.94702 58.6299ZM-0.636242 56.7416C-1.23884 56.4155 -1.83175 56.0907 -2.4148 55.7681L-3.14098 57.0806C-2.55426 57.4052 -1.95723 57.7323 -1.35013 58.0608L-0.636242 56.7416ZM-4.1867 54.7785C-4.78728 54.4402 -5.37635 54.1057 -5.95374 53.7761L-6.69727 55.0789C-6.11799 55.4095 -5.52642 55.7455 -4.92289 56.0854L-4.1867 54.7785ZM-7.71791 52.7651C-8.01261 52.5956 -8.30385 52.428 -8.59174 52.2624L-9.33991 53.5624C-9.05207 53.7281 -8.76055 53.8959 -8.46553 54.0655L-7.71791 52.7651Z" fill="white"/>
</g>
</svg>
