<svg width="22" height="23" viewBox="0 0 22 23" fill="none" xmlns="http://www.w3.org/2000/svg">
<path d="M10.3669 1.20595L1.45767 7.59039C1.16781 7.79634 1 8.12433 1 8.47521V20.6873C1 21.2899 1.48818 21.778 2.09077 21.778H6.17162C6.77422 21.778 7.2624 21.2899 7.2624 20.6873V17.6285C7.2624 15.5614 8.93288 13.8909 11 13.8909C13.0671 13.8909 14.7376 15.5614 14.7376 17.6285V20.6873C14.7376 21.2899 15.2258 21.778 15.8284 21.778H19.9092C20.5118 21.778 21 21.2899 21 20.6873V8.47521C21 8.12433 20.8322 7.79634 20.5423 7.59039L11.6331 1.20595C11.2593 0.93135 10.7483 0.93135 10.3669 1.20595Z" stroke="#FF6135" stroke-width="2" stroke-miterlimit="10" stroke-linecap="round"/>
</svg>
