<svg width="67" height="67" viewBox="0 0 67 67" fill="none" xmlns="http://www.w3.org/2000/svg">
<rect width="66.1392" height="66.1392" rx="20" fill="black"/>
<path d="M18 39.3718V27.1062H22.8114C25.6067 27.1062 27.1992 28.6818 27.1992 31.1044C27.1992 32.7816 26.4283 34.0013 25.0307 34.5943L27.6397 39.3718H24.8274L22.4895 35.0178H20.5412V39.3718H18ZM20.5412 32.951H22.337C23.8448 32.951 24.5733 32.3242 24.5733 31.1044C24.5733 29.8676 23.8448 29.19 22.337 29.19H20.5412V32.951Z" fill="#FF6135"/>
<path d="M28.5274 39.3718V27.1062H36.7609V29.2069H31.0686V32.1886H36.3374V34.2894H31.0686V37.271H36.7778V39.3718H28.5274Z" fill="#FF6135"/>
<path d="M42.6294 39.3718H38.3093V27.1062H42.6802C46.3734 27.1062 48.6266 29.4102 48.6266 33.222C48.6266 37.0677 46.3734 39.3718 42.6294 39.3718ZM40.8506 37.1863H42.5278C44.8657 37.1863 46.0854 35.9665 46.0854 33.222C46.0854 30.4945 44.8657 29.2916 42.5447 29.2916H40.8506V37.1863Z" fill="#FF6135"/>
</svg>
