<svg width="29" height="12" viewBox="0 0 29 12" fill="none" xmlns="http://www.w3.org/2000/svg">
<path d="M0 11.3125V0H4.4375C7.01562 0 8.48438 1.45312 8.48438 3.6875C8.48438 5.23438 7.77344 6.35938 6.48438 6.90625L8.89062 11.3125H6.29688L4.14062 7.29688H2.34375V11.3125H0ZM2.34375 5.39062H4C5.39062 5.39062 6.0625 4.8125 6.0625 3.6875C6.0625 2.54688 5.39062 1.92188 4 1.92188H2.34375V5.39062Z" fill="#FF6135"/>
<path d="M9.70938 11.3125V0H17.3031V1.9375H12.0531V4.6875H16.9125V6.625H12.0531V9.375H17.3188V11.3125H9.70938Z" fill="#FF6135"/>
<path d="M22.7156 11.3125H18.7313V0H22.7625C26.1688 0 28.2469 2.125 28.2469 5.64062C28.2469 9.1875 26.1688 11.3125 22.7156 11.3125ZM21.075 9.29688H22.6219C24.7781 9.29688 25.9031 8.17188 25.9031 5.64062C25.9031 3.125 24.7781 2.01562 22.6375 2.01562H21.075V9.29688Z" fill="#FF6135"/>
</svg>
