<svg width="68" height="67" viewBox="0 0 68 67" fill="none" xmlns="http://www.w3.org/2000/svg">
<rect width="67.2234" height="66.1392" rx="20" fill="black"/>
<path d="M13.011 39.5412V27.2756H17.8223C20.6177 27.2756 22.2102 28.8512 22.2102 31.2738C22.2102 32.951 21.4393 34.1708 20.0417 34.7637L22.6506 39.5412H19.8384L17.5005 35.1872H15.5522V39.5412H13.011ZM15.5522 33.1204H17.348C18.8558 33.1204 19.5842 32.4936 19.5842 31.2738C19.5842 30.0371 18.8558 29.3594 17.348 29.3594H15.5522V33.1204Z" fill="#FF6135"/>
<path d="M34.7705 33.4084C34.7705 37.4066 32.2801 39.7106 29.0443 39.7106C25.7746 39.7106 23.3012 37.3896 23.3012 33.4084C23.3012 29.4102 25.7746 27.1062 29.0443 27.1062C32.2801 27.1062 34.7705 29.4102 34.7705 33.4084ZM32.1785 33.4084C32.1785 30.7825 30.9418 29.3594 29.0443 29.3594C27.1469 29.3594 25.8932 30.7825 25.8932 33.4084C25.8932 36.0343 27.1469 37.4574 29.0443 37.4574C30.9418 37.4574 32.1785 36.0343 32.1785 33.4084Z" fill="#FF6135"/>
<path d="M42.8244 30.7825C42.7228 29.8168 41.9435 29.2408 40.7068 29.2408C39.4192 29.2408 38.7077 29.8338 38.6907 30.647C38.6738 31.5279 39.6056 31.9345 40.6559 32.1717L41.7571 32.4427C43.8579 32.9171 45.4334 33.9844 45.4334 36.0343C45.4334 38.2875 43.6715 39.7106 40.6898 39.7106C37.7251 39.7106 35.8277 38.3383 35.7599 35.7124H38.2333C38.318 36.9492 39.3006 37.576 40.6559 37.576C41.9943 37.576 42.8583 36.9492 42.8583 36.0343C42.8583 35.2042 42.096 34.8145 40.7576 34.4757L39.4192 34.1538C37.3524 33.6456 36.0818 32.6122 36.0818 30.8164C36.0818 28.5801 38.047 27.1062 40.7237 27.1062C43.4343 27.1062 45.2301 28.614 45.264 30.7825H42.8244Z" fill="#FF6135"/>
<path d="M46.66 39.5412V27.2756H54.8935V29.3763H49.2012V32.358H54.47V34.4588H49.2012V37.4405H54.9104V39.5412H46.66Z" fill="#FF6135"/>
</svg>
