<svg width="166" height="117" viewBox="0 0 166 117" fill="none" xmlns="http://www.w3.org/2000/svg">
<mask id="mask0_2_3936" style="mask-type:alpha" maskUnits="userSpaceOnUse" x="0" y="0" width="166" height="117">
<path d="M136 -1.31134e-06C152.569 -5.87108e-07 166 13.4315 166 30L166 87C166 103.569 152.569 117 136 117L30 117C13.4315 117 -4.52713e-06 103.569 -3.80289e-06 87L-1.31134e-06 30C-5.87108e-07 13.4315 13.4315 -6.66898e-06 30 -5.94475e-06L136 -1.31134e-06Z" fill="black"/>
</mask>
<g mask="url(#mask0_2_3936)">
<path fill-rule="evenodd" clip-rule="evenodd" d="M182.448 52.7271C166.163 44.3219 129.989 25.6518 91.6364 54.5345C85.718 58.9915 79.8925 62.3563 74.1974 64.8176C65.9293 64.0896 58.7934 61.461 51.7557 58.1996C49.155 56.9944 46.5492 55.6912 43.8961 54.3643C36.2816 50.5561 28.2765 46.5526 18.8775 44.1088C8.6356 41.446 1.40713 42.3703 -3.48681 44.8332C-6.36599 46.2822 -8.38648 48.2407 -9.69948 50.2231C-10.5075 49.7774 -11.2748 49.3661 -12 48.9957V121H186V54.5345C184.952 54.0196 183.765 53.4069 182.448 52.7271ZM68.3985 67.0343C37.4683 77.3321 10.9052 62.0458 -4.9658 52.9124C-5.69211 52.4944 -6.39603 52.0893 -7.07696 51.7002C-6.04384 50.2044 -4.45169 48.6773 -2.13819 47.513C1.9262 45.4675 8.3644 44.4752 18.1225 47.0123C27.1902 49.3699 34.7883 53.1691 42.3261 56.9382L42.3262 56.9383C45.0349 58.2927 47.7358 59.6432 50.4943 60.9215C56.1432 63.5393 61.9541 65.8042 68.3985 67.0343Z" fill="#C95E78"/>
</g>
</svg>
