<svg width="39" height="12" viewBox="0 0 39 12" fill="none" xmlns="http://www.w3.org/2000/svg">
<path d="M0 11.4688V0.15625H4.4375C7.01562 0.15625 8.48438 1.60938 8.48438 3.84375C8.48438 5.39062 7.77344 6.51562 6.48438 7.0625L8.89062 11.4688H6.29688L4.14062 7.45312H2.34375V11.4688H0ZM2.34375 5.54688H4C5.39062 5.54688 6.0625 4.96875 6.0625 3.84375C6.0625 2.70312 5.39062 2.07812 4 2.07812H2.34375V5.54688Z" fill="#FF6135"/>
<path d="M20.0688 5.8125C20.0688 9.5 17.7719 11.625 14.7875 11.625C11.7719 11.625 9.49063 9.48438 9.49063 5.8125C9.49063 2.125 11.7719 0 14.7875 0C17.7719 0 20.0688 2.125 20.0688 5.8125ZM17.6781 5.8125C17.6781 3.39062 16.5375 2.07812 14.7875 2.07812C13.0375 2.07812 11.8813 3.39062 11.8813 5.8125C11.8813 8.23438 13.0375 9.54688 14.7875 9.54688C16.5375 9.54688 17.6781 8.23438 17.6781 5.8125Z" fill="#FF6135"/>
<path d="M27.4969 3.39062C27.4031 2.5 26.6844 1.96875 25.5438 1.96875C24.3563 1.96875 23.7 2.51562 23.6844 3.26562C23.6688 4.07812 24.5281 4.45312 25.4969 4.67188L26.5125 4.92188C28.45 5.35938 29.9031 6.34375 29.9031 8.23438C29.9031 10.3125 28.2781 11.625 25.5281 11.625C22.7938 11.625 21.0438 10.3594 20.9813 7.9375H23.2625C23.3406 9.07812 24.2469 9.65625 25.4969 9.65625C26.7313 9.65625 27.5281 9.07812 27.5281 8.23438C27.5281 7.46875 26.825 7.10938 25.5906 6.79688L24.3563 6.5C22.45 6.03125 21.2781 5.07812 21.2781 3.42188C21.2781 1.35938 23.0906 0 25.5594 0C28.0594 0 29.7156 1.39062 29.7469 3.39062H27.4969Z" fill="#FF6135"/>
<path d="M31.0344 11.4688V0.15625H38.6281V2.09375H33.3781V4.84375H38.2375V6.78125H33.3781V9.53125H38.6437V11.4688H31.0344Z" fill="#FF6135"/>
</svg>
