<svg width="12" height="11" viewBox="0 0 12 11" fill="none" xmlns="http://www.w3.org/2000/svg">
<path d="M8.46082 10.72C8.30831 10.7198 8.15813 10.6825 8.02332 10.6112L5.73207 9.40684C5.68733 9.3834 5.63757 9.37116 5.58707 9.37116C5.53656 9.37116 5.48681 9.3834 5.44207 9.40684L3.14832 10.6112C2.99348 10.6927 2.81893 10.7292 2.64441 10.7167C2.4699 10.7041 2.30238 10.643 2.1608 10.5402C2.01923 10.4373 1.90925 10.297 1.84331 10.1349C1.77738 9.97283 1.75811 9.79554 1.78769 9.62309L2.22519 7.07184C2.23376 7.022 2.2301 6.97082 2.21453 6.9227C2.19897 6.87459 2.17195 6.83097 2.13582 6.79559L0.283316 4.98871C0.157957 4.86659 0.0692846 4.71182 0.0273332 4.54191C-0.0146182 4.37201 -0.00817318 4.19375 0.0459389 4.02731C0.100051 3.86088 0.19967 3.71292 0.33352 3.60017C0.46737 3.48742 0.630108 3.41439 0.803316 3.38934L3.36582 3.01434C3.41587 3.00704 3.46341 2.9877 3.50434 2.95798C3.54527 2.92826 3.57838 2.88905 3.60082 2.84371L4.74644 0.522463C4.82387 0.36563 4.94363 0.233586 5.09219 0.141258C5.24074 0.0489296 5.41216 0 5.58707 0C5.76197 0 5.93339 0.0489296 6.08194 0.141258C6.2305 0.233586 6.35026 0.36563 6.42769 0.522463L7.57332 2.84371C7.59567 2.88917 7.62875 2.9285 7.66968 2.95834C7.71062 2.98817 7.7582 3.0076 7.80832 3.01496L10.3708 3.38996C10.544 3.41501 10.7068 3.48804 10.8406 3.60079C10.9745 3.71354 11.0741 3.86151 11.1282 4.02794C11.1823 4.19437 11.1887 4.37263 11.1468 4.54254C11.1048 4.71244 11.0162 4.86722 10.8908 4.98934L9.03769 6.79621C9.00144 6.83153 8.97431 6.87512 8.95863 6.92324C8.94296 6.97136 8.9392 7.02257 8.94769 7.07246L9.38519 9.62371C9.40832 9.75833 9.40175 9.89637 9.36596 10.0282C9.33016 10.16 9.26599 10.2824 9.17794 10.3868C9.08989 10.4912 8.98009 10.5751 8.85622 10.6327C8.73235 10.6902 8.5974 10.72 8.46082 10.72ZM6.02332 8.85371L8.31332 10.0556C8.36491 10.0826 8.42305 10.0947 8.48115 10.0905C8.53925 10.0862 8.59502 10.0658 8.64214 10.0316C8.68926 9.99733 8.72587 9.95058 8.74784 9.89662C8.7698 9.84266 8.77625 9.78364 8.76644 9.72621L8.32894 7.17496C8.30326 7.02509 8.31442 6.87122 8.36146 6.72662C8.4085 6.58203 8.49 6.45104 8.59894 6.34496L10.4521 4.53871C10.4938 4.49802 10.5234 4.44645 10.5374 4.38983C10.5514 4.3332 10.5493 4.2738 10.5313 4.21833C10.5132 4.16285 10.4801 4.11353 10.4355 4.07593C10.3909 4.03834 10.3367 4.01397 10.2789 4.00559L7.71644 3.63059C7.56593 3.60876 7.42299 3.55064 7.29995 3.46125C7.17691 3.37185 7.07746 3.25386 7.01019 3.11746L5.86644 0.801838C5.83841 0.751883 5.79758 0.710296 5.74815 0.681351C5.69872 0.652407 5.64247 0.63715 5.58519 0.63715C5.52791 0.63715 5.47166 0.652407 5.42223 0.681351C5.3728 0.710296 5.33197 0.751883 5.30394 0.801838L4.16019 3.12309C4.09284 3.25937 3.99336 3.37723 3.87033 3.46652C3.74729 3.5558 3.60439 3.61382 3.45394 3.63559L0.891441 4.01059C0.833722 4.01897 0.779501 4.04334 0.734911 4.08093C0.690322 4.11853 0.657143 4.16785 0.639129 4.22333C0.621115 4.2788 0.618985 4.3382 0.632979 4.39482C0.646973 4.45145 0.676534 4.50302 0.718316 4.54371L2.57332 6.34809C2.68253 6.45449 2.76414 6.58592 2.81108 6.73098C2.85802 6.87605 2.86887 7.03038 2.84269 7.18059L2.40519 9.73184C2.3953 9.78935 2.40171 9.84848 2.4237 9.90254C2.44569 9.95659 2.48237 10.0034 2.5296 10.0377C2.57682 10.072 2.6327 10.0923 2.69091 10.0965C2.74911 10.1007 2.80732 10.0884 2.85894 10.0612L5.14832 8.85371C5.28317 8.78256 5.43334 8.74537 5.58582 8.74537C5.73829 8.74537 5.88846 8.78256 6.02332 8.85371Z" fill="#999999"/>
</svg>
