<svg width="67" height="66" viewBox="0 0 67 66" fill="none" xmlns="http://www.w3.org/2000/svg">
<rect x="0.12085" width="66" height="66" rx="20" fill="black"/>
<path d="M11.2339 30.7917C11.1316 29.7957 10.3469 29.2016 9.1017 29.2016C7.80531 29.2016 7.08889 29.8132 7.07183 30.6519C7.05477 31.5605 7.99295 31.9798 9.05052 32.2245L10.1593 32.504C12.2744 32.9933 13.8608 34.0941 13.8608 36.2083C13.8608 38.5323 12.0868 40 9.08464 40C6.09954 40 4.18908 38.5847 4.12085 35.8763H6.61127C6.69656 37.1519 7.68591 37.7984 9.05052 37.7984C10.3981 37.7984 11.268 37.1519 11.268 36.2083C11.268 35.3522 10.5004 34.9503 9.15287 34.6008L7.80531 34.2688C5.72427 33.7446 4.44495 32.6788 4.44495 30.8266C4.44495 28.5202 6.42364 27 9.11875 27C11.848 27 13.6561 28.5551 13.6902 30.7917H11.2339Z" fill="#FF6135"/>
<path d="M25.3986 27.1747V39.8253H23.1811L17.7568 31.7876H17.6544V39.8253H15.0958V27.1747H17.3474L22.7376 35.2124H22.857V27.1747H25.3986Z" fill="#FF6135"/>
<path d="M29.107 39.8253H26.3436L30.6251 27.1747H33.9172L38.1817 39.8253H35.4354L34.5143 36.9073H30.0451L29.107 39.8253ZM30.6933 34.8629H33.8661L32.3138 30.0228H32.2285L30.6933 34.8629Z" fill="#FF6135"/>
<path d="M46.8197 31.578C46.615 30.1801 45.5574 29.3239 44.1246 29.3239C42.197 29.3239 40.9348 30.8441 40.9348 33.5C40.9348 36.2258 42.2141 37.6761 44.1075 37.6761C45.5233 37.6761 46.5638 36.8723 46.8197 35.5094L49.4124 35.5269C49.1225 37.8683 47.212 40 44.0734 40C40.7642 40 38.3249 37.6237 38.3249 33.5C38.3249 29.3763 40.8154 27 44.0734 27C46.922 27 49.0713 28.6774 49.4124 31.578H46.8197Z" fill="#FF6135"/>
<path d="M50.7668 39.8253V27.1747H53.3255V32.7836H53.4961L57.9822 27.1747H61.0697L56.4641 32.836L61.1208 39.8253H58.0505L54.6219 34.6008L53.3255 36.2083V39.8253H50.7668Z" fill="#FF6135"/>
</svg>
