<svg width="67" height="67" viewBox="0 0 67 67" fill="none" xmlns="http://www.w3.org/2000/svg">
<rect width="66.1392" height="66.1392" rx="20" fill="black"/>
<path d="M9.83661 31.5724C9.77308 30.9689 9.28602 30.6089 8.51307 30.6089C7.70835 30.6089 7.26364 30.9794 7.25305 31.4877C7.24246 32.0383 7.82482 32.2924 8.4813 32.4406L9.16955 32.6101C10.4825 32.9065 11.4672 33.5736 11.4672 34.8548C11.4672 36.263 10.366 37.1525 8.50248 37.1525C6.64952 37.1525 5.46362 36.2948 5.42126 34.6536H6.96717C7.02011 35.4266 7.63423 35.8183 8.4813 35.8183C9.31778 35.8183 9.85779 35.4266 9.85779 34.8548C9.85779 34.336 9.38131 34.0924 8.54483 33.8807L7.70835 33.6795C6.41657 33.3618 5.62244 32.7159 5.62244 31.5936C5.62244 30.1959 6.85069 29.2747 8.52366 29.2747C10.2178 29.2747 11.3402 30.2171 11.3613 31.5724H9.83661Z" fill="#FF6135"/>
<path d="M12.2338 37.0466V29.3806H15.2409C16.988 29.3806 17.9833 30.45 17.9833 31.9642C17.9833 33.4995 16.9668 34.5477 15.1986 34.5477H13.8221V37.0466H12.2338ZM13.8221 33.2665H14.9444C15.8868 33.2665 16.3421 32.7371 16.3421 31.9642C16.3421 31.2018 15.8868 30.683 14.9444 30.683H13.8221V33.2665Z" fill="#FF6135"/>
<path d="M19.1099 37.0466H17.3946L20.0523 29.3806H22.0958L24.7429 37.0466H23.0382L22.4664 35.2783H19.6923L19.1099 37.0466ZM20.0946 34.0395H22.0641L21.1005 31.1065H21.0476L20.0946 34.0395Z" fill="#FF6135"/>
<path d="M25.3401 37.0466V29.3806H28.3472C30.0943 29.3806 31.0896 30.3653 31.0896 31.8795C31.0896 32.9277 30.6078 33.6901 29.7343 34.0607L31.3649 37.0466H29.6072L28.146 34.3254H26.9284V37.0466H25.3401ZM26.9284 33.0336H28.0507C28.9931 33.0336 29.4484 32.6418 29.4484 31.8795C29.4484 31.1065 28.9931 30.683 28.0507 30.683H26.9284V33.0336Z" fill="#FF6135"/>
<path d="M31.9197 37.0466V29.3806H33.508V32.7795H33.6139L36.3986 29.3806H38.3151L35.4562 32.8112L38.3469 37.0466H36.441L34.3127 33.8807L33.508 34.8548V37.0466H31.9197Z" fill="#FF6135"/>
<path d="M38.8382 37.0466V29.3806H40.4264V35.7336H43.73V37.0466H38.8382Z" fill="#FF6135"/>
<path d="M46.0742 29.3806V37.0466H44.486V29.3806H46.0742Z" fill="#FF6135"/>
<path d="M53.4903 29.3806V37.0466H52.1139L48.7468 32.1759H48.6832V37.0466H47.095V29.3806H48.4926L51.8386 34.2513H51.9127V29.3806H53.4903Z" fill="#FF6135"/>
<path d="M59.6041 31.8477C59.3923 31.1277 58.8099 30.683 57.9735 30.683C56.7876 30.683 55.9828 31.5936 55.9828 33.203C55.9828 34.823 56.7664 35.7442 57.984 35.7442C59.0799 35.7442 59.7311 35.1248 59.7523 34.156H58.0899V32.9595H61.2876V33.9124C61.2876 35.9242 59.9111 37.1525 57.9735 37.1525C55.824 37.1525 54.3628 35.6489 54.3628 33.2242C54.3628 30.7359 55.9193 29.2747 57.9417 29.2747C59.6676 29.2747 61.0017 30.3336 61.2135 31.8477H59.6041Z" fill="#FF6135"/>
</svg>
