<svg width="166" height="117" viewBox="0 0 166 117" fill="none" xmlns="http://www.w3.org/2000/svg">
<mask id="mask0_2_3941" style="mask-type:alpha" maskUnits="userSpaceOnUse" x="0" y="0" width="166" height="117">
<path d="M136 -1.31134e-06C152.569 -5.87108e-07 166 13.4315 166 30L166 87C166 103.569 152.569 117 136 117L30 117C13.4315 117 -4.52713e-06 103.569 -3.80289e-06 87L-1.31134e-06 30C-5.87108e-07 13.4315 13.4315 -6.66898e-06 30 -5.94475e-06L136 -1.31134e-06Z" fill="black"/>
</mask>
<g mask="url(#mask0_2_3941)">
<path fill-rule="evenodd" clip-rule="evenodd" d="M178.448 52.7271C162.163 44.3219 125.989 25.6518 87.6364 54.5345C81.718 58.9915 75.8925 62.3563 70.1974 64.8176C61.9293 64.0896 54.7934 61.461 47.7557 58.1996C45.155 56.9944 42.5492 55.6912 39.8961 54.3643C32.2816 50.5561 24.2765 46.5526 14.8775 44.1089C4.6356 41.446 -2.59287 42.3703 -7.48681 44.8332C-10.366 46.2822 -12.3865 48.2407 -13.6995 50.2231C-14.5075 49.7774 -15.2748 49.3661 -16 48.9957V121H182V54.5345C180.952 54.0196 179.765 53.4069 178.448 52.7271ZM64.3985 67.0343C33.4683 77.3321 6.90516 62.0457 -8.96582 52.9124C-9.69213 52.4944 -10.396 52.0893 -11.077 51.7002C-10.0438 50.2044 -8.45169 48.6773 -6.13819 47.513C-2.0738 45.4675 4.3644 44.4752 14.1225 47.0123C23.1902 49.3699 30.7883 53.1691 38.3261 56.9382L38.3262 56.9383C41.0349 58.2927 43.7358 59.6432 46.4943 60.9215C52.1432 63.5393 57.9541 65.8042 64.3985 67.0343Z" fill="#B3C976"/>
<path fill-rule="evenodd" clip-rule="evenodd" d="M137.926 49H136.667V64.48L130.618 58.4314L129.728 59.3218L135.776 65.3703H127.222V66.6296H135.776L129.728 72.6782L130.618 73.5687L136.667 67.5201V83H137.926V67.5201L143.974 73.5687L144.865 72.6783L138.816 66.6296H147.37V65.3703H138.816L144.865 59.3218L143.974 58.4313L137.926 64.48V49Z" fill="black"/>
<path d="M136.667 49V48.5H136.167V49H136.667ZM137.926 49H138.426V48.5H137.926V49ZM136.667 64.48L136.313 64.8336L137.167 65.6871V64.48H136.667ZM130.618 58.4314L130.972 58.0778L130.618 57.7243L130.264 58.0778L130.618 58.4314ZM129.728 59.3218L129.374 58.9683L129.02 59.3218L129.374 59.6754L129.728 59.3218ZM135.776 65.3703V65.8703H136.983L136.13 65.0167L135.776 65.3703ZM127.222 65.3703V64.8703H126.722V65.3703H127.222ZM127.222 66.6296H126.722V67.1296H127.222V66.6296ZM135.776 66.6296L136.13 66.9831L136.983 66.1296H135.776V66.6296ZM129.728 72.6782L129.374 72.3247L129.02 72.6782L129.374 73.0318L129.728 72.6782ZM130.618 73.5687L130.264 73.9222L130.618 74.2758L130.972 73.9222L130.618 73.5687ZM136.667 67.5201H137.167V66.313L136.313 67.1665L136.667 67.5201ZM136.667 83H136.167V83.5H136.667V83ZM137.926 83V83.5H138.426V83H137.926ZM137.926 67.5201L138.279 67.1666L137.426 66.313V67.5201H137.926ZM143.974 73.5687L143.621 73.9223L143.974 74.2758L144.328 73.9223L143.974 73.5687ZM144.865 72.6783L145.218 73.0318L145.572 72.6783L145.218 72.3247L144.865 72.6783ZM138.816 66.6296V66.1296H137.609L138.463 66.9831L138.816 66.6296ZM147.37 66.6296V67.1296H147.87V66.6296H147.37ZM147.37 65.3703H147.87V64.8703H147.37V65.3703ZM138.816 65.3703L138.463 65.0167L137.609 65.8703H138.816V65.3703ZM144.865 59.3218L145.218 59.6753L145.572 59.3218L145.218 58.9682L144.865 59.3218ZM143.974 58.4313L144.328 58.0778L143.974 57.7242L143.621 58.0778L143.974 58.4313ZM137.926 64.48H137.426V65.6871L138.279 64.8335L137.926 64.48ZM136.667 49.5H137.926V48.5H136.667V49.5ZM137.167 64.48V49H136.167V64.48H137.167ZM130.264 58.7849L136.313 64.8336L137.02 64.1265L130.972 58.0778L130.264 58.7849ZM130.081 59.6754L130.972 58.7849L130.264 58.0778L129.374 58.9683L130.081 59.6754ZM136.13 65.0167L130.081 58.9683L129.374 59.6754L135.422 65.7239L136.13 65.0167ZM127.222 65.8703H135.776V64.8703H127.222V65.8703ZM127.722 66.6296V65.3703H126.722V66.6296H127.722ZM135.776 66.1296H127.222V67.1296H135.776V66.1296ZM130.081 73.0318L136.13 66.9831L135.423 66.276L129.374 72.3247L130.081 73.0318ZM130.972 73.2151L130.081 72.3247L129.374 73.0318L130.264 73.9222L130.972 73.2151ZM136.313 67.1665L130.264 73.2151L130.972 73.9222L137.02 67.8736L136.313 67.1665ZM137.167 83V67.5201H136.167V83H137.167ZM137.926 82.5H136.667V83.5H137.926V82.5ZM137.426 67.5201V83H138.426V67.5201H137.426ZM144.328 73.2152L138.279 67.1666L137.572 67.8737L143.621 73.9223L144.328 73.2152ZM144.511 72.3247L143.621 73.2152L144.328 73.9223L145.218 73.0318L144.511 72.3247ZM138.463 66.9831L144.511 73.0318L145.218 72.3247L139.17 66.276L138.463 66.9831ZM147.37 66.1296H138.816V67.1296H147.37V66.1296ZM146.87 65.3703V66.6296H147.87V65.3703H146.87ZM138.816 65.8703H147.37V64.8703H138.816V65.8703ZM144.511 58.9682L138.463 65.0167L139.17 65.7239L145.218 59.6753L144.511 58.9682ZM143.621 58.7849L144.511 59.6753L145.218 58.9682L144.328 58.0778L143.621 58.7849ZM138.279 64.8335L144.328 58.7849L143.621 58.0778L137.572 64.1264L138.279 64.8335ZM137.426 49V64.48H138.426V49H137.426Z" fill="black"/>
<path fill-rule="evenodd" clip-rule="evenodd" d="M105.981 90H105.278V98.6506L101.898 95.2705L101.4 95.7681L104.78 99.1482H100V99.8519H104.78L101.4 103.232L101.898 103.73L105.278 100.349V109H105.981V100.35L109.362 103.73L109.859 103.232L106.479 99.8519H111.259V99.1482H106.479L109.859 95.768L109.362 95.2704L105.981 98.6505V90Z" fill="black"/>
<path d="M105.278 90V89.5H104.778V90H105.278ZM105.981 90H106.481V89.5H105.981V90ZM105.278 98.6506L104.924 99.0042L105.778 99.8577V98.6506H105.278ZM101.898 95.2705L102.251 94.917L101.898 94.5634L101.544 94.917L101.898 95.2705ZM101.4 95.7681L101.047 95.4146L100.693 95.7681L101.047 96.1217L101.4 95.7681ZM104.78 99.1482V99.6482H105.987L105.134 98.7946L104.78 99.1482ZM100 99.1482V98.6482H99.5V99.1482H100ZM100 99.8519H99.5V100.352H100V99.8519ZM104.78 99.8519L105.134 100.205L105.987 99.3519H104.78V99.8519ZM101.4 103.232L101.046 102.878L100.693 103.232L101.046 103.585L101.4 103.232ZM101.898 103.73L101.544 104.083L101.898 104.437L102.251 104.083L101.898 103.73ZM105.278 100.349H105.778V99.1423L104.924 99.9958L105.278 100.349ZM105.278 109H104.778V109.5H105.278V109ZM105.981 109V109.5H106.481V109H105.981ZM105.981 100.35L106.335 99.996L105.481 99.1424V100.35H105.981ZM109.362 103.73L109.008 104.083L109.362 104.437L109.715 104.083L109.362 103.73ZM109.859 103.232L110.213 103.586L110.566 103.232L110.213 102.878L109.859 103.232ZM106.479 99.8519V99.3519H105.272L106.125 100.205L106.479 99.8519ZM111.259 99.8519V100.352H111.759V99.8519H111.259ZM111.259 99.1482H111.759V98.6482H111.259V99.1482ZM106.479 99.1482L106.125 98.7946L105.272 99.6482H106.479V99.1482ZM109.859 95.768L110.213 96.1216L110.566 95.768L110.213 95.4145L109.859 95.768ZM109.362 95.2704L109.715 94.9169L109.362 94.5633L109.008 94.9169L109.362 95.2704ZM105.981 98.6505H105.481V99.8576L106.335 99.004L105.981 98.6505ZM105.278 90.5H105.981V89.5H105.278V90.5ZM105.778 98.6506V90H104.778V98.6506H105.778ZM101.544 95.6241L104.924 99.0042L105.631 98.2971L102.251 94.917L101.544 95.6241ZM101.754 96.1217L102.251 95.6241L101.544 94.917L101.047 95.4146L101.754 96.1217ZM105.134 98.7946L101.754 95.4146L101.047 96.1217L104.427 99.5017L105.134 98.7946ZM100 99.6482H104.78V98.6482H100V99.6482ZM100.5 99.8519V99.1482H99.5V99.8519H100.5ZM104.78 99.3519H100V100.352H104.78V99.3519ZM101.754 103.585L105.134 100.205L104.427 99.4983L101.046 102.878L101.754 103.585ZM102.251 103.376L101.754 102.878L101.046 103.585L101.544 104.083L102.251 103.376ZM104.924 99.9958L101.544 103.376L102.251 104.083L105.631 100.703L104.924 99.9958ZM105.778 109V100.349H104.778V109H105.778ZM105.981 108.5H105.278V109.5H105.981V108.5ZM105.481 100.35V109H106.481V100.35H105.481ZM109.715 103.376L106.335 99.996L105.628 100.703L109.008 104.083L109.715 103.376ZM109.506 102.878L109.008 103.376L109.715 104.083L110.213 103.586L109.506 102.878ZM106.125 100.205L109.506 103.586L110.213 102.878L106.833 99.4983L106.125 100.205ZM111.259 99.3519H106.479V100.352H111.259V99.3519ZM110.759 99.1482V99.8519H111.759V99.1482H110.759ZM106.479 99.6482H111.259V98.6482H106.479V99.6482ZM109.506 95.4145L106.125 98.7946L106.833 99.5017L110.213 96.1216L109.506 95.4145ZM109.008 95.624L109.506 96.1216L110.213 95.4145L109.715 94.9169L109.008 95.624ZM106.335 99.004L109.715 95.624L109.008 94.9169L105.628 98.2969L106.335 99.004ZM105.481 90V98.6505H106.481V90H105.481Z" fill="black"/>
<path fill-rule="evenodd" clip-rule="evenodd" d="M79.6829 75H79.0579V82.6832L76.0558 79.681L75.6139 80.123L78.6159 83.1251H74.3704V83.7501H78.6158L75.6138 86.752L76.0558 87.1939L79.0579 84.1918V91.875H79.6829V84.1921L82.6849 87.1941L83.1269 86.7521L80.1248 83.7501H84.3704V83.1251H80.1247L83.1268 80.1229L82.6849 79.6809L79.6829 82.6829V75Z" fill="black"/>
<path d="M79.0579 75V74.5H78.5579V75H79.0579ZM79.6829 75H80.1829V74.5H79.6829V75ZM79.0579 82.6832L78.7044 83.0367L79.5579 83.8903V82.6832H79.0579ZM76.0558 79.681L76.4093 79.3275L76.0558 78.9739L75.7022 79.3275L76.0558 79.681ZM75.6139 80.123L75.2603 79.7694L74.9067 80.123L75.2603 80.4765L75.6139 80.123ZM78.6159 83.1251V83.6251H79.823L78.9695 82.7715L78.6159 83.1251ZM74.3704 83.1251V82.6251H73.8704V83.1251H74.3704ZM74.3704 83.7501H73.8704V84.2501H74.3704V83.7501ZM78.6158 83.7501L78.9693 84.1036L79.8229 83.2501H78.6158V83.7501ZM75.6138 86.752L75.2603 86.3984L74.9067 86.752L75.2603 87.1055L75.6138 86.752ZM76.0558 87.1939L75.7022 87.5475L76.0558 87.901L76.4093 87.5475L76.0558 87.1939ZM79.0579 84.1918H79.5579V82.9847L78.7044 83.8382L79.0579 84.1918ZM79.0579 91.875H78.5579V92.375H79.0579V91.875ZM79.6829 91.875V92.375H80.1829V91.875H79.6829ZM79.6829 84.1921L80.0365 83.8385L79.1829 82.9849V84.1921H79.6829ZM82.6849 87.1941L82.3314 87.5476L82.6849 87.9012L83.0385 87.5476L82.6849 87.1941ZM83.1269 86.7521L83.4804 87.1057L83.834 86.7521L83.4804 86.3986L83.1269 86.7521ZM80.1248 83.7501V83.2501H78.9177L79.7712 84.1036L80.1248 83.7501ZM84.3704 83.7501V84.2501H84.8704V83.7501H84.3704ZM84.3704 83.1251H84.8704V82.6251H84.3704V83.1251ZM80.1247 83.1251L79.7711 82.7715L78.9175 83.6251H80.1247V83.1251ZM83.1268 80.1229L83.4804 80.4764L83.8339 80.1229L83.4804 79.7693L83.1268 80.1229ZM82.6849 79.6809L83.0385 79.3274L82.6849 78.9738L82.3313 79.3274L82.6849 79.6809ZM79.6829 82.6829H79.1829V83.89L80.0365 83.0365L79.6829 82.6829ZM79.0579 75.5H79.6829V74.5H79.0579V75.5ZM79.5579 82.6832V75H78.5579V82.6832H79.5579ZM75.7022 80.0346L78.7044 83.0367L79.4115 82.3296L76.4093 79.3275L75.7022 80.0346ZM75.9674 80.4765L76.4093 80.0346L75.7022 79.3275L75.2603 79.7694L75.9674 80.4765ZM78.9695 82.7715L75.9674 79.7694L75.2603 80.4765L78.2624 83.4786L78.9695 82.7715ZM74.3704 83.6251H78.6159V82.6251H74.3704V83.6251ZM74.8704 83.7501V83.1251H73.8704V83.7501H74.8704ZM78.6158 83.2501H74.3704V84.2501H78.6158V83.2501ZM75.9674 87.1055L78.9693 84.1036L78.2622 83.3965L75.2603 86.3984L75.9674 87.1055ZM76.4093 86.8404L75.9674 86.3984L75.2603 87.1055L75.7022 87.5475L76.4093 86.8404ZM78.7044 83.8382L75.7022 86.8404L76.4093 87.5475L79.4115 84.5453L78.7044 83.8382ZM79.5579 91.875V84.1918H78.5579V91.875H79.5579ZM79.6829 91.375H79.0579V92.375H79.6829V91.375ZM79.1829 84.1921V91.875H80.1829V84.1921H79.1829ZM83.0385 86.8405L80.0365 83.8385L79.3294 84.5456L82.3314 87.5476L83.0385 86.8405ZM82.7733 86.3986L82.3314 86.8405L83.0385 87.5476L83.4804 87.1057L82.7733 86.3986ZM79.7712 84.1036L82.7733 87.1057L83.4804 86.3986L80.4784 83.3965L79.7712 84.1036ZM84.3704 83.2501H80.1248V84.2501H84.3704V83.2501ZM83.8704 83.1251V83.7501H84.8704V83.1251H83.8704ZM80.1247 83.6251H84.3704V82.6251H80.1247V83.6251ZM82.7733 79.7693L79.7711 82.7715L80.4782 83.4786L83.4804 80.4764L82.7733 79.7693ZM82.3313 80.0345L82.7733 80.4764L83.4804 79.7693L83.0385 79.3274L82.3313 80.0345ZM80.0365 83.0365L83.0385 80.0345L82.3313 79.3274L79.3294 82.3293L80.0365 83.0365ZM79.1829 75V82.6829H80.1829V75H79.1829Z" fill="black"/>
</g>
</svg>
