<svg width="52" height="8" viewBox="0 0 52 8" fill="none" xmlns="http://www.w3.org/2000/svg">
<path d="M4.07227 2.11914C4.01367 1.5625 3.56445 1.23047 2.85156 1.23047C2.10938 1.23047 1.69922 1.57227 1.68945 2.04102C1.67969 2.54883 2.2168 2.7832 2.82227 2.91992L3.45703 3.07617C4.66797 3.34961 5.57617 3.96484 5.57617 5.14648C5.57617 6.44531 4.56055 7.26562 2.8418 7.26562C1.13281 7.26562 0.0390625 6.47461 0 4.96094H1.42578C1.47461 5.67383 2.04102 6.03516 2.82227 6.03516C3.59375 6.03516 4.0918 5.67383 4.0918 5.14648C4.0918 4.66797 3.65234 4.44336 2.88086 4.24805L2.10938 4.0625C0.917969 3.76953 0.185547 3.17383 0.185547 2.13867C0.185547 0.849609 1.31836 0 2.86133 0C4.42383 0 5.45898 0.869141 5.47852 2.11914H4.07227Z" fill="#FF6135"/>
<path d="M6.2832 7.16797V0.0976562H9.05664C10.668 0.0976562 11.5859 1.08398 11.5859 2.48047C11.5859 3.89648 10.6484 4.86328 9.01758 4.86328H7.74805V7.16797H6.2832ZM7.74805 3.68164H8.7832C9.65234 3.68164 10.0723 3.19336 10.0723 2.48047C10.0723 1.77734 9.65234 1.29883 8.7832 1.29883H7.74805V3.68164Z" fill="#FF6135"/>
<path d="M12.625 7.16797H11.043L13.4941 0.0976562H15.3789L17.8203 7.16797H16.248L15.7207 5.53711H13.1621L12.625 7.16797ZM13.5332 4.39453H15.3496L14.4609 1.68945H14.4121L13.5332 4.39453Z" fill="#FF6135"/>
<path d="M18.3711 7.16797V0.0976562H21.1445C22.7559 0.0976562 23.6738 1.00586 23.6738 2.40234C23.6738 3.36914 23.2295 4.07227 22.4238 4.41406L23.9277 7.16797H22.3066L20.959 4.6582H19.8359V7.16797H18.3711ZM19.8359 3.4668H20.8711C21.7402 3.4668 22.1602 3.10547 22.1602 2.40234C22.1602 1.68945 21.7402 1.29883 20.8711 1.29883H19.8359V3.4668Z" fill="#FF6135"/>
<path d="M24.4395 7.16797V0.0976562H25.9043V3.23242H26.002L28.5703 0.0976562H30.3379L27.7012 3.26172L30.3672 7.16797H28.6094L26.6465 4.24805L25.9043 5.14648V7.16797H24.4395Z" fill="#FF6135"/>
<path d="M30.8203 7.16797V0.0976562H32.2852V5.95703H35.332V7.16797H30.8203Z" fill="#FF6135"/>
<path d="M37.4941 0.0976562V7.16797H36.0293V0.0976562H37.4941Z" fill="#FF6135"/>
<path d="M44.334 0.0976562V7.16797H43.0645L39.959 2.67578H39.9004V7.16797H38.4355V0.0976562H39.7246L42.8105 4.58984H42.8789V0.0976562H44.334Z" fill="#FF6135"/>
<path d="M49.9727 2.37305C49.7773 1.70898 49.2402 1.29883 48.4688 1.29883C47.375 1.29883 46.6328 2.13867 46.6328 3.62305C46.6328 5.11719 47.3555 5.9668 48.4785 5.9668C49.4893 5.9668 50.0898 5.39551 50.1094 4.50195H48.5762V3.39844H51.5254V4.27734C51.5254 6.13281 50.2559 7.26562 48.4688 7.26562C46.4863 7.26562 45.1387 5.87891 45.1387 3.64258C45.1387 1.34766 46.5742 0 48.4395 0C50.0312 0 51.2617 0.976562 51.457 2.37305H49.9727Z" fill="#FF6135"/>
</svg>
