<svg width="166" height="117" viewBox="0 0 166 117" fill="none" xmlns="http://www.w3.org/2000/svg">
<mask id="mask0_2_3931" style="mask-type:alpha" maskUnits="userSpaceOnUse" x="0" y="0" width="166" height="117">
<path d="M136 -1.31134e-06C152.569 -5.87108e-07 166 13.4315 166 30L166 87C166 103.569 152.569 117 136 117L30 117C13.4315 117 -4.52713e-06 103.569 -3.80289e-06 87L-1.31134e-06 30C-5.87108e-07 13.4315 13.4315 -6.66898e-06 30 -5.94475e-06L136 -1.31134e-06Z" fill="black"/>
</mask>
<g mask="url(#mask0_2_3931)">
<path fill-rule="evenodd" clip-rule="evenodd" d="M178.448 52.7271C162.163 44.3219 125.989 25.6518 87.6364 54.5345C81.718 58.9915 75.8925 62.3563 70.1974 64.8176C61.9293 64.0896 54.7934 61.461 47.7557 58.1996C45.155 56.9944 42.5492 55.6912 39.8961 54.3643C32.2816 50.5561 24.2765 46.5526 14.8775 44.1088C4.6356 41.446 -2.59287 42.3703 -7.48681 44.8332C-10.366 46.2822 -12.3865 48.2407 -13.6995 50.2231C-14.5075 49.7774 -15.2748 49.3661 -16 48.9957V121H182V54.5345C180.952 54.0196 179.765 53.4069 178.448 52.7271ZM64.3985 67.0343C33.4683 77.3321 6.90518 62.0458 -8.9658 52.9124C-9.69211 52.4944 -10.396 52.0893 -11.077 51.7002C-10.0438 50.2044 -8.45169 48.6773 -6.13819 47.513C-2.0738 45.4675 4.3644 44.4752 14.1225 47.0123C23.1902 49.3699 30.7883 53.1691 38.3261 56.9382L38.3262 56.9383C41.0349 58.2927 43.7358 59.6432 46.4943 60.9215C52.1432 63.5393 57.9541 65.8042 64.3985 67.0343Z" fill="#E4DBC6"/>
</g>
</svg>
