<svg width="67" height="67" viewBox="0 0 67 67" fill="none" xmlns="http://www.w3.org/2000/svg">
<rect width="66.1392" height="66.1392" rx="20" fill="black"/>
<path d="M10.5069 41.2656L7 29H9.77839L11.8452 37.5723H11.9469L14.2001 29H16.5888L18.842 37.5893H18.9437L21.0105 29H23.7889L20.2821 41.2656H17.7917L15.4538 33.1676H15.3521L12.9973 41.2656H10.5069Z" fill="#FF6135"/>
<path d="M24.6597 41.2656V29H27.2009V34.0824H32.5205V29H35.0787V41.2656H32.5205V36.1832H27.2009V41.2656H24.6597Z" fill="#FF6135"/>
<path d="M39.253 29V41.2656H36.7118V29H39.253Z" fill="#FF6135"/>
<path d="M40.4118 31.1007V29H50.4581V31.1007H46.6971V41.2656H44.1728V31.1007H40.4118Z" fill="#FF6135"/>
<path d="M51.5999 41.2656V29H59.8334V31.1007H54.1411V34.0824H59.4099V36.1832H54.1411V39.1648H59.8504V41.2656H51.5999Z" fill="#FF6135"/>
</svg>
