<svg width="49" height="12" viewBox="0 0 49 12" fill="none" xmlns="http://www.w3.org/2000/svg">
<path d="M3.23438 11.3125L0 0H2.5625L4.46875 7.90625H4.5625L6.64062 0H8.84375L10.9219 7.92188H11.0156L12.9219 0H15.4844L12.25 11.3125H9.95312L7.79688 3.84375H7.70312L5.53125 11.3125H3.23438Z" fill="#FF6135"/>
<path d="M16.2875 11.3125V0H18.6313V4.6875H23.5375V0H25.8969V11.3125H23.5375V6.625H18.6313V11.3125H16.2875Z" fill="#FF6135"/>
<path d="M29.7469 0V11.3125H27.4031V0H29.7469Z" fill="#FF6135"/>
<path d="M30.8156 1.9375V0H40.0812V1.9375H36.6125V11.3125H34.2844V1.9375H30.8156Z" fill="#FF6135"/>
<path d="M41.1344 11.3125V0H48.7281V1.9375H43.4781V4.6875H48.3375V6.625H43.4781V9.375H48.7438V11.3125H41.1344Z" fill="#FF6135"/>
</svg>
